<svg width="24" height="24" viewBox="0 0 24 24" fill="none" xmlns="http://www.w3.org/2000/svg">
<g clip-path="url(#clip0_401_617)">
<path d="M23.0955 0H16.5528C16.0532 0 15.6483 0.404906 15.6483 0.904547C15.6483 1.40414 16.0532 1.80905 16.5528 1.80905H22.191V7.44722C22.191 7.94681 22.5959 8.35172 23.0955 8.35172C23.5951 8.35172 24 7.94681 24 7.44722V0.904547C24 0.404906 23.5951 0 23.0955 0Z" fill="#5D9C59"/>
<path d="M23.735 0.265043C23.3816 -0.0883477 22.8093 -0.0883477 22.456 0.265043L9.55145 13.1695C9.19806 13.5226 9.19806 14.0955 9.55145 14.4485C9.72784 14.6252 9.9594 14.7136 10.191 14.7136C10.4222 14.7136 10.6538 14.6252 10.8305 14.4485L23.735 1.54403C24.0884 1.19096 24.0884 0.618105 23.735 0.265043Z" fill="#5D9C59"/>
<path d="M20.0201 11.2461C19.5205 11.2461 19.1156 11.651 19.1156 12.1506V22.1908H1.80905V4.88424H11.8492C12.3488 4.88424 12.7537 4.47934 12.7537 3.97974C12.7537 3.48015 12.3488 3.0752 11.8492 3.0752H0.904547C0.404906 3.0752 0 3.4801 0 3.97974V23.0953C0 23.5949 0.404906 23.9998 0.904547 23.9998H20.0201C20.52 23.9998 20.9246 23.5949 20.9246 23.0953V12.1506C20.9246 11.651 20.5197 11.2461 20.0201 11.2461Z" fill="#5D9C59"/>
</g>
<defs>
<clipPath id="clip0_401_617">
<rect width="24" height="24" fill="white"/>
</clipPath>
</defs>
</svg>
