<svg width="30" height="40" viewBox="0 0 30 40" fill="none" xmlns="http://www.w3.org/2000/svg">
<path d="M15 7.8125C11.123 7.8125 7.96875 10.9667 7.96875 14.8438C7.96875 18.7208 11.123 21.875 15 21.875C18.877 21.875 22.0312 18.7208 22.0312 14.8438C22.0312 10.9667 18.877 7.8125 15 7.8125ZM15 20.3125C11.9845 20.3125 9.53125 17.8592 9.53125 14.8438C9.53125 11.8283 11.9845 9.375 15 9.375C18.0155 9.375 20.4688 11.8283 20.4688 14.8438C20.4688 17.8592 18.0155 20.3125 15 20.3125Z" fill="#5D9C59"/>
<path d="M22.0312 30.1562C22.4627 30.1562 22.8125 29.8065 22.8125 29.375C22.8125 28.9435 22.4627 28.5938 22.0312 28.5938C21.5998 28.5938 21.25 28.9435 21.25 29.375C21.25 29.8065 21.5998 30.1562 22.0312 30.1562Z" fill="#5D9C59"/>
<path d="M25.6188 22.8228L23.365 26.0152C23.1161 26.3677 23.2002 26.8552 23.5526 27.1041C23.9052 27.3529 24.3927 27.2688 24.6414 26.9164L26.8889 23.7329C28.8221 21.1511 29.8438 18.0777 29.8438 14.8438C29.8438 6.65883 23.1849 0 15 0C6.81508 0 0.15625 6.65883 0.15625 14.8438C0.15625 18.0777 1.17789 21.1511 3.11109 23.733L13.4921 38.4375H3.28125C2.84984 38.4375 2.5 38.7873 2.5 39.2188C2.5 39.6502 2.84984 40 3.28125 40H26.7188C27.1502 40 27.5 39.6502 27.5 39.2188C27.5 38.7873 27.1502 38.4375 26.7188 38.4375H16.5079L20.5884 32.6575C20.8373 32.305 20.7533 31.8176 20.4009 31.5687C20.0482 31.3198 19.5608 31.4038 19.312 31.7563L15 37.8641C15 37.8641 4.3725 22.8107 4.36797 22.8047C2.63492 20.4936 1.71875 17.7407 1.71875 14.8438C1.71875 7.52047 7.67672 1.5625 15 1.5625C22.3233 1.5625 28.2812 7.52047 28.2812 14.8438C28.2812 17.7407 27.3651 20.4936 25.632 22.8047C25.6275 22.8107 25.6231 22.8167 25.6188 22.8228Z" fill="#5D9C59"/>
</svg>
