<svg width="24" height="25" viewBox="0 0 24 25" fill="none" xmlns="http://www.w3.org/2000/svg">
<g clip-path="url(#clip0_401_554)">
<path d="M14.453 24.0159C10.9268 24.0125 8.06922 21.1549 8.06585 17.6287V11.2416H4.99998V7.50505L5.21069 7.35161C7.61862 5.6207 9.20919 3.21912 9.80313 0.40232L9.88621 0H14.1976V5.6207H17.7743V11.2416H13.6865V16.3512C13.6865 17.2311 14.2494 18.0122 15.0842 18.2902C15.9188 18.5685 16.8377 18.2814 17.3656 17.5777L17.8638 16.9134L19.895 20.982L19.7225 21.2311C18.5333 22.9723 16.5615 24.0144 14.453 24.0159ZM6.02188 10.2195H9.08775V17.6287C9.08756 19.9266 10.5505 21.9695 12.726 22.709C14.9016 23.4487 17.3067 22.7208 18.7069 20.899L17.6338 18.7528C16.7124 19.4826 15.4547 19.6213 14.3963 19.1098C13.3381 18.5984 12.6652 17.5268 12.6647 16.3512V10.2195H16.7524V6.64278H13.1755V1.02189H10.7101C10.0202 3.83234 8.40436 6.24027 6.02188 8.02882V10.2195Z" fill="#5D9C59"/>
</g>
<defs>
<clipPath id="clip0_401_554">
<rect width="24" height="24.016" fill="white"/>
</clipPath>
</defs>
</svg>
