<svg width="24" height="19" viewBox="0 0 24 19" fill="none" xmlns="http://www.w3.org/2000/svg">
<path d="M15.6941 8.01513L10.3919 5.11402C10.0871 4.94721 9.72671 4.95343 9.42789 5.1305C9.12888 5.30774 8.95053 5.62085 8.95053 5.96838V11.7208C8.95053 12.0667 9.12778 12.3792 9.42477 12.5567C9.57986 12.6493 9.7518 12.6958 9.9241 12.6958C10.0819 12.6958 10.2401 12.6568 10.3857 12.5785L15.6881 9.72734C16.0028 9.55797 16.1993 9.23076 16.2007 8.87316C16.202 8.51555 16.0079 8.18688 15.6941 8.01513ZM10.357 10.9972V6.69787L14.3197 8.8662L10.357 10.9972Z" fill="#5D9C59"/>
<path d="M23.8234 4.29033L23.8223 4.27934C23.802 4.08617 23.5996 2.36791 22.7643 1.49395C21.7988 0.466002 20.7042 0.341124 20.1778 0.281249C20.1342 0.276305 20.0943 0.271727 20.0586 0.266967L20.0166 0.262572C16.8438 0.0318603 12.0521 0.00036621 12.0042 0.000183105L12 0L11.9957 0.000183105C11.9478 0.00036621 7.1561 0.0318603 3.9547 0.262572L3.9124 0.266967C3.87834 0.271544 3.84081 0.275756 3.79997 0.280516C3.27959 0.340575 2.19671 0.465635 1.22845 1.53076C0.43286 2.39538 0.20288 4.07683 0.17926 4.26579L0.176513 4.29033C0.169372 4.37071 0 6.28434 0 8.20547V10.0014C0 11.9225 0.169372 13.8361 0.176513 13.9167L0.177795 13.9288C0.198119 14.1188 0.400267 15.8056 1.23175 16.6799C2.13958 17.6735 3.28746 17.8049 3.90489 17.8756C4.00249 17.8868 4.08653 17.8963 4.14384 17.9064L4.19932 17.9141C6.03129 18.0884 11.7751 18.1742 12.0186 18.1777L12.026 18.1779L12.0333 18.1777C12.0813 18.1775 16.8727 18.146 20.0456 17.9153L20.0875 17.9109C20.1276 17.9056 20.1727 17.9009 20.2221 17.8957C20.7395 17.8408 21.8166 17.7267 22.7715 16.6761C23.567 15.8113 23.7972 14.1298 23.8206 13.941L23.8234 13.9165C23.8305 13.8359 24.0001 11.9225 24.0001 10.0014V8.20547C23.9999 6.28434 23.8305 4.37089 23.8234 4.29033ZM22.5935 10.0014C22.5935 11.7795 22.4382 13.6107 22.4236 13.7788C22.3639 14.2419 22.1213 15.3057 21.7336 15.7271C21.136 16.3846 20.522 16.4498 20.0738 16.4972C20.0196 16.5029 19.9694 16.5084 19.924 16.514C16.8552 16.736 12.2444 16.77 12.032 16.7713C11.7938 16.7678 6.13401 16.6812 4.35789 16.5162C4.26689 16.5014 4.16856 16.49 4.06493 16.4783C3.53923 16.4181 2.81963 16.3357 2.26629 15.7271L2.25329 15.7131C1.87243 15.3163 1.63677 14.3215 1.5769 13.7843C1.56573 13.6572 1.40643 11.8044 1.40643 10.0014V8.20547C1.40643 6.42936 1.56133 4.60014 1.57635 4.42857C1.64758 3.8831 1.89477 2.88372 2.26629 2.47979C2.88225 1.8023 3.53172 1.72723 3.96129 1.67761C4.0023 1.67285 4.04057 1.66845 4.07591 1.66387C7.18942 1.44085 11.8333 1.40771 12 1.40643C12.1666 1.40753 16.8088 1.44085 19.8947 1.66387C19.9326 1.66863 19.974 1.67339 20.0185 1.67852C20.4603 1.72888 21.1281 1.80505 21.7409 2.45873L21.7466 2.46477C22.1275 2.86156 22.3631 3.87376 22.423 4.4218C22.4336 4.54173 22.5935 6.3986 22.5935 8.20547V10.0014Z" fill="#5D9C59"/>
</svg>
