<svg width="24" height="24" viewBox="0 0 24 24" fill="none" xmlns="http://www.w3.org/2000/svg">
<g clip-path="url(#clip0_401_96)">
<path d="M12.004 5.83798C8.601 5.83798 5.846 8.59598 5.846 11.996C5.846 15.399 8.604 18.154 12.004 18.154C15.407 18.154 18.162 15.396 18.162 11.996C18.162 8.59298 15.404 5.83798 12.004 5.83798ZM12.004 15.993C9.795 15.993 8.007 14.204 8.007 11.996C8.007 9.78798 9.796 7.99898 12.004 7.99898C14.212 7.99898 16.001 9.78798 16.001 11.996C16.002 14.204 14.213 15.993 12.004 15.993Z" fill="#1C2541"/>
<path d="M16.948 0.075997C14.74 -0.027003 9.271 -0.022003 7.061 0.075997C5.119 0.166997 3.406 0.635997 2.025 2.017C-0.283002 4.325 0.0119984 7.435 0.0119984 11.996C0.0119984 16.664 -0.248002 19.702 2.025 21.975C4.342 24.291 7.497 23.988 12.004 23.988C16.628 23.988 18.224 23.991 19.859 23.358C22.082 22.495 23.76 20.508 23.924 16.939C24.028 14.73 24.022 9.262 23.924 7.052C23.726 2.839 21.465 0.283997 16.948 0.075997ZM20.443 20.448C18.93 21.961 16.831 21.826 11.975 21.826C6.975 21.826 4.97 21.9 3.507 20.433C1.822 18.756 2.127 16.063 2.127 11.98C2.127 6.455 1.56 2.476 7.105 2.192C8.379 2.147 8.754 2.132 11.961 2.132L12.006 2.162C17.335 2.162 21.516 1.604 21.767 7.148C21.824 8.413 21.837 8.793 21.837 11.995C21.836 16.937 21.93 18.954 20.443 20.448Z" fill="#1C2541"/>
<path d="M18.406 7.03401C19.2007 7.03401 19.845 6.38974 19.845 5.59501C19.845 4.80027 19.2007 4.15601 18.406 4.15601C17.6113 4.15601 16.967 4.80027 16.967 5.59501C16.967 6.38974 17.6113 7.03401 18.406 7.03401Z" fill="#1C2541"/>
</g>
<defs>
<clipPath id="clip0_401_96">
<rect width="24" height="24" fill="white"/>
</clipPath>
</defs>
</svg>
