<svg width="206" height="181" viewBox="0 0 206 181" fill="none" xmlns="http://www.w3.org/2000/svg">
<path fill-rule="evenodd" clip-rule="evenodd" d="M138.761 179.836C144.665 177.592 153.88 172.661 160.548 168.179C168.526 162.816 179.487 152.588 184.945 145.413C194.75 132.526 199.879 119.418 202.826 99.7155C204.808 86.4666 204.949 83.1028 205.132 44.6473C205.327 3.74886 205.504 6.31599 202.263 3.07564C199.136 -0.0517278 200.986 0.0888363 162.898 0.088833C126.111 0.0888298 127.399 0.0137566 124.36 2.33213C123.584 2.9239 122.463 4.23362 121.87 5.24227L120.792 7.07667L120.684 41.9221L120.575 76.7675L121.438 78.7732C122.451 81.1279 125.231 83.7521 127.331 84.3355C128.192 84.5743 135.366 84.738 145.05 84.7392L161.322 84.7416L161.322 87.2524C161.322 92.9693 159.692 102.671 157.651 109.099C154.939 117.645 150.8 124.536 144.805 130.486C139.914 135.342 134.25 139.197 126.288 143.093C120.466 145.941 119.593 146.648 117.993 149.807C117.57 150.643 117.287 152.134 117.273 153.608C117.253 155.742 117.519 156.608 119.486 160.817C126.97 176.834 127.582 177.85 130.708 179.445C133 180.614 136.292 180.774 138.761 179.836ZM20.6813 180.129C22.8942 179.72 33.2998 174.628 38.9344 171.197C56.0286 160.786 69.3722 146.838 77.1806 131.218C82.8903 119.797 85.7186 108.259 87.7103 88.2595C88.2398 82.9447 88.3915 74.9981 88.5345 45.0498C88.7322 3.70253 88.9111 6.32078 85.6659 3.07563C82.5389 -0.0513413 84.3865 0.0888261 46.3215 0.0888228C9.21925 0.0888195 10.5198 0.00814643 7.50262 2.49502C6.7112 3.14749 5.59834 4.61534 5.02933 5.75694L3.99513 7.83253L4.0039 42.3936C4.01269 76.3003 4.02827 76.989 4.82609 78.752C5.76086 80.8176 7.18678 82.4264 9.1861 83.6714C10.5513 84.522 10.9802 84.5467 27.7482 84.7416L44.9128 84.9412L44.791 88.1357C44.4759 96.3865 42.4842 106.206 39.7178 113.143C36.8735 120.275 33.4671 125.478 28.2977 130.584C23.593 135.231 18.7898 138.542 11.2501 142.336C4.02227 145.972 2.00217 147.648 1.18399 150.686C0.21567 154.282 0.725619 156.093 5.49132 166C8.15109 171.529 10.5114 175.882 11.4218 176.938C13.7346 179.62 17.1191 180.787 20.6813 180.129Z" fill="#5D9C59" fill-opacity="0.16"/>
</svg>
