<svg width="79" height="57" viewBox="0 0 79 57" fill="none" xmlns="http://www.w3.org/2000/svg">
<g clip-path="url(#clip0_411_1196)">
<path d="M5.09 0H0L20.74 28.24L0 56.48H5.09L25.83 28.24L5.09 0Z" fill="#EDEEF0"/>
<path d="M18.13 0H13.05L33.79 28.24L13.05 56.48H18.13L38.87 28.24L18.13 0Z" fill="#EDEEF0"/>
<path d="M31.18 0H26.09L46.83 28.24L26.09 56.48H31.18L51.92 28.24L31.18 0Z" fill="#EDEEF0"/>
<path d="M44.22 0H39.14L59.88 28.24L39.14 56.48H44.22L64.97 28.24L44.22 0Z" fill="#EDEEF0"/>
<path d="M57.27 0H52.18L72.92 28.24L52.18 56.48H57.27L78.01 28.24L57.27 0Z" fill="#EDEEF0"/>
</g>
<defs>
<clipPath id="clip0_411_1196">
<rect width="78.01" height="56.48" fill="white"/>
</clipPath>
</defs>
</svg>
