<svg width="83" height="59" viewBox="0 0 83 59" fill="none" xmlns="http://www.w3.org/2000/svg">
<g clip-path="url(#clip0_411_1226)">
<path d="M0 53.42C0 56.01 2.11 58.12 4.7 58.12C7.29 58.12 9.4 56.01 9.4 53.42C9.4 50.83 7.29 48.72 4.7 48.72C2.11 48.72 0 50.83 0 53.42Z" fill="#EDEEF0"/>
<path d="M0 41.24C0 43.83 2.11 45.94 4.7 45.94C7.29 45.94 9.4 43.83 9.4 41.24C9.4 38.65 7.29 36.54 4.7 36.54C2.11 36.54 0 38.65 0 41.24Z" fill="#EDEEF0"/>
<path d="M12.1801 53.42C12.1801 56.01 14.2901 58.12 16.8801 58.12C19.4701 58.12 21.5801 56.01 21.5801 53.42C21.5801 50.83 19.4701 48.72 16.8801 48.72C14.2901 48.72 12.1801 50.83 12.1801 53.42Z" fill="#EDEEF0"/>
<path d="M12.1801 41.24C12.1801 43.83 14.2901 45.94 16.8801 45.94C19.4701 45.94 21.5801 43.83 21.5801 41.24C21.5801 38.65 19.4701 36.54 16.8801 36.54C14.2901 36.54 12.1801 38.65 12.1801 41.24Z" fill="#EDEEF0"/>
<path d="M12.1801 29.06C12.1801 31.65 14.2901 33.76 16.8801 33.76C19.4701 33.76 21.5801 31.65 21.5801 29.06C21.5801 26.47 19.4701 24.36 16.8801 24.36C14.2901 24.36 12.1801 26.47 12.1801 29.06Z" fill="#EDEEF0"/>
<path d="M24.36 53.42C24.36 56.01 26.47 58.12 29.06 58.12C31.65 58.12 33.76 56.01 33.76 53.42C33.76 50.83 31.65 48.72 29.06 48.72C26.47 48.72 24.36 50.83 24.36 53.42Z" fill="#EDEEF0"/>
<path d="M24.36 41.24C24.36 43.83 26.47 45.94 29.06 45.94C31.65 45.94 33.76 43.83 33.76 41.24C33.76 38.65 31.65 36.54 29.06 36.54C26.47 36.54 24.36 38.65 24.36 41.24Z" fill="#EDEEF0"/>
<path d="M24.36 29.06C24.36 31.65 26.47 33.76 29.06 33.76C31.65 33.76 33.76 31.65 33.76 29.06C33.76 26.47 31.65 24.36 29.06 24.36C26.47 24.36 24.36 26.47 24.36 29.06Z" fill="#EDEEF0"/>
<path d="M24.36 16.88C24.36 19.47 26.47 21.58 29.06 21.58C31.65 21.58 33.76 19.47 33.76 16.88C33.76 14.29 31.65 12.18 29.06 12.18C26.47 12.18 24.36 14.29 24.36 16.88Z" fill="#EDEEF0"/>
<path d="M36.54 53.42C36.54 56.01 38.65 58.12 41.24 58.12C43.83 58.12 45.94 56.01 45.94 53.42C45.94 50.83 43.83 48.72 41.24 48.72C38.65 48.72 36.54 50.83 36.54 53.42Z" fill="#EDEEF0"/>
<path d="M36.54 41.24C36.54 43.83 38.65 45.94 41.24 45.94C43.83 45.94 45.94 43.83 45.94 41.24C45.94 38.65 43.83 36.54 41.24 36.54C38.65 36.54 36.54 38.65 36.54 41.24Z" fill="#EDEEF0"/>
<path d="M36.54 29.06C36.54 31.65 38.65 33.76 41.24 33.76C43.83 33.76 45.94 31.65 45.94 29.06C45.94 26.47 43.83 24.36 41.24 24.36C38.65 24.36 36.54 26.47 36.54 29.06Z" fill="#EDEEF0"/>
<path d="M36.54 16.88C36.54 19.47 38.65 21.58 41.24 21.58C43.83 21.58 45.94 19.47 45.94 16.88C45.94 14.29 43.83 12.18 41.24 12.18C38.65 12.18 36.54 14.29 36.54 16.88Z" fill="#EDEEF0"/>
<path d="M36.54 4.7C36.54 7.29 38.65 9.4 41.24 9.4C43.83 9.4 45.94 7.29 45.94 4.7C45.94 2.11 43.83 0 41.24 0C38.65 0 36.54 2.11 36.54 4.7Z" fill="#EDEEF0"/>
<path d="M48.71 53.42C48.71 56.01 50.82 58.12 53.41 58.12C56 58.12 58.11 56.01 58.11 53.42C58.11 50.83 56 48.72 53.41 48.72C50.82 48.72 48.71 50.83 48.71 53.42Z" fill="#EDEEF0"/>
<path d="M48.71 41.24C48.71 43.83 50.82 45.94 53.41 45.94C56 45.94 58.11 43.83 58.11 41.24C58.11 38.65 56 36.54 53.41 36.54C50.82 36.54 48.71 38.65 48.71 41.24Z" fill="#EDEEF0"/>
<path d="M48.71 29.06C48.71 31.65 50.82 33.76 53.41 33.76C56 33.76 58.11 31.65 58.11 29.06C58.11 26.47 56 24.36 53.41 24.36C50.82 24.36 48.71 26.47 48.71 29.06Z" fill="#EDEEF0"/>
<path d="M48.71 16.88C48.71 19.47 50.82 21.58 53.41 21.58C56 21.58 58.11 19.47 58.11 16.88C58.11 14.29 56 12.18 53.41 12.18C50.82 12.18 48.71 14.29 48.71 16.88Z" fill="#EDEEF0"/>
<path d="M60.89 53.42C60.89 56.01 63 58.12 65.59 58.12C68.18 58.12 70.29 56.01 70.29 53.42C70.29 50.83 68.18 48.72 65.59 48.72C63 48.72 60.89 50.83 60.89 53.42Z" fill="#EDEEF0"/>
<path d="M60.89 41.24C60.89 43.83 63 45.94 65.59 45.94C68.18 45.94 70.29 43.83 70.29 41.24C70.29 38.65 68.18 36.54 65.59 36.54C63 36.54 60.89 38.65 60.89 41.24Z" fill="#EDEEF0"/>
<path d="M60.89 29.06C60.89 31.65 63 33.76 65.59 33.76C68.18 33.76 70.29 31.65 70.29 29.06C70.29 26.47 68.18 24.36 65.59 24.36C63 24.36 60.89 26.47 60.89 29.06Z" fill="#EDEEF0"/>
<path d="M73.0699 53.42C73.0699 56.01 75.1799 58.12 77.7699 58.12C80.3599 58.12 82.4699 56.01 82.4699 53.42C82.4699 50.83 80.3599 48.72 77.7699 48.72C75.1799 48.72 73.0699 50.83 73.0699 53.42Z" fill="#EDEEF0"/>
<path d="M73.0699 41.24C73.0699 43.83 75.1799 45.94 77.7699 45.94C80.3599 45.94 82.4699 43.83 82.4699 41.24C82.4699 38.65 80.3599 36.54 77.7699 36.54C75.1799 36.54 73.0699 38.65 73.0699 41.24Z" fill="#EDEEF0"/>
</g>
<defs>
<clipPath id="clip0_411_1226">
<rect width="82.48" height="58.12" fill="white"/>
</clipPath>
</defs>
</svg>
