<svg width="73" height="76" viewBox="0 0 73 76" fill="none" xmlns="http://www.w3.org/2000/svg">
<path d="M3.70678 65L63.2932 65C64.2358 65 65 64.2358 65 63.2932L65 3.70678C65 2.76415 64.2358 2 63.2932 2L3.70678 2C2.76415 2 2 2.76415 2 3.70678L2 63.2932C2 64.2358 2.76415 65 3.70678 65Z" stroke="#EDEEF0" stroke-width="2" stroke-miterlimit="10"/>
<path d="M69.93 74.34C69.93 73.87 70.31 73.49 70.78 73.49C71.25 73.49 71.63 73.87 71.63 74.34C71.63 74.81 71.25 75.19 70.78 75.19C70.31 75.19 69.93 74.81 69.93 74.34Z" fill="#1C2541"/>
<path d="M56.62 74.34C56.62 73.87 57 73.49 57.47 73.49C57.94 73.49 58.32 73.87 58.32 74.34C58.32 74.81 57.94 75.19 57.47 75.19C57 75.19 56.62 74.81 56.62 74.34Z" fill="#1C2541"/>
<path d="M43.31 74.34C43.31 73.87 43.69 73.49 44.16 73.49C44.63 73.49 45.01 73.87 45.01 74.34C45.01 74.81 44.63 75.19 44.16 75.19C43.69 75.19 43.31 74.81 43.31 74.34Z" fill="#1C2541"/>
<path d="M30 74.34C30 73.87 30.38 73.49 30.85 73.49C31.32 73.49 31.7 73.87 31.7 74.34C31.7 74.81 31.32 75.19 30.85 75.19C30.38 75.19 30 74.81 30 74.34Z" fill="#1C2541"/>
<path d="M16.69 74.34C16.69 73.87 17.07 73.49 17.54 73.49C18.01 73.49 18.39 73.87 18.39 74.34C18.39 74.81 18.01 75.19 17.54 75.19C17.07 75.19 16.69 74.81 16.69 74.34Z" fill="#1C2541"/>
<path d="M69.93 62.4401C69.93 61.9701 70.31 61.5901 70.78 61.5901C71.25 61.5901 71.63 61.9701 71.63 62.4401C71.63 62.9101 71.25 63.2901 70.78 63.2901C70.31 63.2901 69.93 62.9101 69.93 62.4401Z" fill="#1C2541"/>
<path d="M56.62 62.4401C56.62 61.9701 57 61.5901 57.47 61.5901C57.94 61.5901 58.32 61.9701 58.32 62.4401C58.32 62.9101 57.94 63.2901 57.47 63.2901C57 63.2901 56.62 62.9101 56.62 62.4401Z" fill="#1C2541"/>
<path d="M43.31 62.4401C43.31 61.9701 43.69 61.5901 44.16 61.5901C44.63 61.5901 45.01 61.9701 45.01 62.4401C45.01 62.9101 44.63 63.2901 44.16 63.2901C43.69 63.2901 43.31 62.9101 43.31 62.4401Z" fill="#1C2541"/>
<path d="M30 62.4401C30 61.9701 30.38 61.5901 30.85 61.5901C31.32 61.5901 31.7 61.9701 31.7 62.4401C31.7 62.9101 31.32 63.2901 30.85 63.2901C30.38 63.2901 30 62.9101 30 62.4401Z" fill="#1C2541"/>
<path d="M16.69 62.4401C16.69 61.9701 17.07 61.5901 17.54 61.5901C18.01 61.5901 18.39 61.9701 18.39 62.4401C18.39 62.9101 18.01 63.2901 17.54 63.2901C17.07 63.2901 16.69 62.9101 16.69 62.4401Z" fill="#1C2541"/>
<path d="M69.93 50.5499C69.93 50.0799 70.31 49.7 70.78 49.7C71.25 49.7 71.63 50.0799 71.63 50.5499C71.63 51.0199 71.25 51.4 70.78 51.4C70.31 51.4 69.93 51.0199 69.93 50.5499Z" fill="#1C2541"/>
<path d="M57.47 51.4C57.9394 51.4 58.32 51.0194 58.32 50.5499C58.32 50.0805 57.9394 49.7 57.47 49.7C57.0006 49.7 56.62 50.0805 56.62 50.5499C56.62 51.0194 57.0006 51.4 57.47 51.4Z" fill="#1C2541"/>
<path d="M44.16 51.4C44.6294 51.4 45.01 51.0194 45.01 50.5499C45.01 50.0805 44.6294 49.7 44.16 49.7C43.6906 49.7 43.31 50.0805 43.31 50.5499C43.31 51.0194 43.6906 51.4 44.16 51.4Z" fill="#1C2541"/>
<path d="M30 50.5499C30 50.0799 30.38 49.7 30.85 49.7C31.32 49.7 31.7 50.0799 31.7 50.5499C31.7 51.0199 31.32 51.4 30.85 51.4C30.38 51.4 30 51.0199 30 50.5499Z" fill="#1C2541"/>
<path d="M16.69 50.5499C16.69 50.0799 17.07 49.7 17.54 49.7C18.01 49.7 18.39 50.0799 18.39 50.5499C18.39 51.0199 18.01 51.4 17.54 51.4C17.07 51.4 16.69 51.0199 16.69 50.5499Z" fill="#1C2541"/>
<path d="M69.93 38.6601C69.93 38.1901 70.31 37.8101 70.78 37.8101C71.25 37.8101 71.63 38.1901 71.63 38.6601C71.63 39.1301 71.25 39.5101 70.78 39.5101C70.31 39.5101 69.93 39.1301 69.93 38.6601Z" fill="#1C2541"/>
<path d="M57.47 39.5101C57.9394 39.5101 58.32 39.1295 58.32 38.6601C58.32 38.1906 57.9394 37.8101 57.47 37.8101C57.0006 37.8101 56.62 38.1906 56.62 38.6601C56.62 39.1295 57.0006 39.5101 57.47 39.5101Z" fill="#1C2541"/>
<path d="M44.16 39.5101C44.6294 39.5101 45.01 39.1295 45.01 38.6601C45.01 38.1906 44.6294 37.8101 44.16 37.8101C43.6906 37.8101 43.31 38.1906 43.31 38.6601C43.31 39.1295 43.6906 39.5101 44.16 39.5101Z" fill="#1C2541"/>
<path d="M30 38.6601C30 38.1901 30.38 37.8101 30.85 37.8101C31.32 37.8101 31.7 38.1901 31.7 38.6601C31.7 39.1301 31.32 39.5101 30.85 39.5101C30.38 39.5101 30 39.1301 30 38.6601Z" fill="#1C2541"/>
<path d="M16.69 38.6601C16.69 38.1901 17.07 37.8101 17.54 37.8101C18.01 37.8101 18.39 38.1901 18.39 38.6601C18.39 39.1301 18.01 39.5101 17.54 39.5101C17.07 39.5101 16.69 39.1301 16.69 38.6601Z" fill="#1C2541"/>
<path d="M69.93 26.7599C69.93 26.2899 70.31 25.9099 70.78 25.9099C71.25 25.9099 71.63 26.2899 71.63 26.7599C71.63 27.2299 71.25 27.6099 70.78 27.6099C70.31 27.6099 69.93 27.2299 69.93 26.7599Z" fill="#1C2541"/>
<path d="M57.47 27.6099C57.9394 27.6099 58.32 27.2294 58.32 26.7599C58.32 26.2905 57.9394 25.9099 57.47 25.9099C57.0006 25.9099 56.62 26.2905 56.62 26.7599C56.62 27.2294 57.0006 27.6099 57.47 27.6099Z" fill="#1C2541"/>
<path d="M44.16 27.6099C44.6294 27.6099 45.01 27.2294 45.01 26.7599C45.01 26.2905 44.6294 25.9099 44.16 25.9099C43.6906 25.9099 43.31 26.2905 43.31 26.7599C43.31 27.2294 43.6906 27.6099 44.16 27.6099Z" fill="#1C2541"/>
<path d="M30 26.7599C30 26.2899 30.38 25.9099 30.85 25.9099C31.32 25.9099 31.7 26.2899 31.7 26.7599C31.7 27.2299 31.32 27.6099 30.85 27.6099C30.38 27.6099 30 27.2299 30 26.7599Z" fill="#1C2541"/>
<path d="M16.69 26.7599C16.69 26.2899 17.07 25.9099 17.54 25.9099C18.01 25.9099 18.39 26.2899 18.39 26.7599C18.39 27.2299 18.01 27.6099 17.54 27.6099C17.07 27.6099 16.69 27.2299 16.69 26.7599Z" fill="#1C2541"/>
<path d="M69.93 14.87C69.93 14.4 70.31 14.02 70.78 14.02C71.25 14.02 71.63 14.4 71.63 14.87C71.63 15.34 71.25 15.72 70.78 15.72C70.31 15.72 69.93 15.34 69.93 14.87Z" fill="#1C2541"/>
<path d="M56.62 14.87C56.62 14.4 57 14.02 57.47 14.02C57.94 14.02 58.32 14.4 58.32 14.87C58.32 15.34 57.94 15.72 57.47 15.72C57 15.72 56.62 15.34 56.62 14.87Z" fill="#1C2541"/>
<path d="M43.31 14.87C43.31 14.4 43.69 14.02 44.16 14.02C44.63 14.02 45.01 14.4 45.01 14.87C45.01 15.34 44.63 15.72 44.16 15.72C43.69 15.72 43.31 15.34 43.31 14.87Z" fill="#1C2541"/>
<path d="M30 14.87C30 14.4 30.38 14.02 30.85 14.02C31.32 14.02 31.7 14.4 31.7 14.87C31.7 15.34 31.32 15.72 30.85 15.72C30.38 15.72 30 15.34 30 14.87Z" fill="#1C2541"/>
<path d="M16.69 14.87C16.69 14.4 17.07 14.02 17.54 14.02C18.01 14.02 18.39 14.4 18.39 14.87C18.39 15.34 18.01 15.72 17.54 15.72C17.07 15.72 16.69 15.34 16.69 14.87Z" fill="#1C2541"/>
</svg>
