<svg width="64" height="64" viewBox="0 0 64 64" fill="none" xmlns="http://www.w3.org/2000/svg">
<path d="M32 64C14.355 64 0 49.645 0 32C0 14.355 14.355 0 32 0C49.645 0 64 14.355 64 32C64 49.645 49.645 64 32 64Z" fill="#FE0050"/>
<path d="M32 0V64C49.645 64 64 49.645 64 32C64 14.355 49.645 0 32 0Z" fill="#E10555"/>
<path d="M32 53.375C20.2137 53.375 10.625 43.7863 10.625 32C10.625 20.2137 20.2137 10.625 32 10.625C43.7863 10.625 53.375 20.2137 53.375 32C53.375 43.7863 43.7863 53.375 32 53.375Z" fill="#D9E7F3"/>
<path d="M32 10.625V53.375C43.7863 53.375 53.375 43.7863 53.375 32C53.375 20.2137 43.7863 10.625 32 10.625Z" fill="#C8D4DF"/>
<path d="M32 42.125C26.417 42.125 21.875 37.583 21.875 32C21.875 26.417 26.417 21.875 32 21.875C37.583 21.875 42.125 26.417 42.125 32C42.125 37.583 37.583 42.125 32 42.125Z" fill="#FE0050"/>
<path d="M32 21.875V42.125C37.583 42.125 42.125 37.583 42.125 32C42.125 26.417 37.583 21.875 32 21.875Z" fill="#E10555"/>
<path d="M32 33.875C31.52 33.875 31.04 33.6919 30.6744 33.3256C29.9419 32.5937 29.9419 31.4062 30.6744 30.6744L44.4629 16.8856C45.1949 16.1534 46.3824 16.1534 47.1143 16.8856C47.8468 17.6176 47.8468 18.8047 47.1143 19.5371L33.3256 33.3256C33.1518 33.5001 32.9452 33.6384 32.7177 33.7327C32.4902 33.827 32.2463 33.8753 32 33.875Z" fill="#2D2D55"/>
<path d="M47.1143 16.8857L30.6743 33.3257C31.04 33.6919 31.52 33.875 32 33.875C32.48 33.875 32.96 33.6919 33.3256 33.3256L47.1144 19.5371C47.8466 18.8051 47.8466 17.6176 47.1144 16.8857H47.1143Z" fill="#0A0A48"/>
<path d="M53.125 20.705C53.0727 20.705 53.02 20.7026 52.9672 20.6988L45.6314 20.08C44.7201 20.0029 43.9971 19.2803 43.9204 18.3691L43.3012 11.0328C43.2784 10.7609 43.3151 10.4873 43.4089 10.2311C43.5027 9.97491 43.6513 9.74226 43.8442 9.5494L51.7989 1.59477C52.0516 1.342 52.3713 1.16671 52.7203 1.08959C53.0693 1.01246 53.4331 1.03669 53.7688 1.15944C54.1045 1.28218 54.3981 1.49832 54.615 1.78238C54.832 2.06645 54.9632 2.40661 54.9932 2.76277L55.4785 8.52102L61.2372 9.0069C61.5934 9.03703 61.9336 9.1683 62.2177 9.38526C62.5018 9.60221 62.718 9.89583 62.8409 10.2315C62.9635 10.5672 62.9876 10.931 62.9105 11.2799C62.8333 11.6289 62.658 11.9485 62.4052 12.2011L54.4506 20.1558C54.0991 20.5074 53.6222 20.705 53.125 20.7051V20.705Z" fill="#FFC300"/>
<path d="M61.2373 9.00687L55.479 8.521L44.4629 19.5371C44.7757 19.8506 45.1896 20.043 45.6309 20.0801L52.9673 20.6987C53.02 20.7026 53.0723 20.705 53.125 20.705C53.62 20.705 54.0976 20.5087 54.4506 20.1557L62.4053 12.2011C62.658 11.9484 62.8333 11.6287 62.9105 11.2796C62.9877 10.9306 62.9635 10.5668 62.8409 10.231C62.7179 9.89541 62.5017 9.60192 62.2176 9.38506C61.9335 9.1682 61.5934 9.03699 61.2373 9.00687Z" fill="#FAB400"/>
</svg>
