<svg width="62" height="48" viewBox="0 0 62 48" fill="none" xmlns="http://www.w3.org/2000/svg">
<path d="M39.1125 47.4876H5.84998C2.46248 47.4876 0.0499793 44.1876 1.08748 40.9626L4.07498 31.6251C5.44998 27.3251 10.075 25.0251 14.3625 26.4501C16.575 27.1876 19.275 27.7126 22.475 27.7126C25.675 27.7126 28.3875 27.1751 30.5875 26.4501C34.875 25.0251 39.5 27.3251 40.875 31.6251L43.8625 40.9626C44.9125 44.1876 42.5 47.4876 39.1125 47.4876Z" fill="#1E88E5"/>
<path d="M22.4875 23.4499C28.818 23.4499 33.95 18.318 33.95 11.9874C33.95 5.65684 28.818 0.524902 22.4875 0.524902C16.1569 0.524902 11.025 5.65684 11.025 11.9874C11.025 18.318 16.1569 23.4499 22.4875 23.4499Z" fill="#90CAF9"/>
<path d="M56.15 47.4872H44.7125C44.875 47.2997 45.025 47.1122 45.175 46.9122C46.6 44.9497 47 42.5122 46.2625 40.1997L43.275 30.8622C43.2125 30.6622 43.15 30.4747 43.075 30.2747C45.3 30.2247 47.2375 29.8872 48.8875 29.4122C53.125 28.1747 57.575 30.5247 58.9125 34.7247L60.9125 40.9497C61.9375 44.1872 59.5375 47.4872 56.15 47.4872Z" fill="#1E88E5"/>
<path d="M53.4 12.6251C53.4 18.6001 48.55 23.4501 42.575 23.4501C39.225 23.4501 36.225 21.9251 34.2375 19.5251C35.6375 17.3501 36.4625 14.7501 36.4625 11.9751C36.4625 9.5126 35.825 7.2001 34.7 5.1876C36.675 3.0876 39.475 1.7876 42.575 1.7876C48.55 1.8001 53.4 6.6376 53.4 12.6251Z" fill="#90CAF9"/>
</svg>
