<svg width="58" height="58" viewBox="0 0 58 58" fill="none" xmlns="http://www.w3.org/2000/svg">
<path d="M57.9811 51.7996C57.9811 52.7282 57.2337 53.4745 56.3063 53.4745H1.69375C1.47372 53.475 1.25577 53.432 1.05242 53.348C0.849069 53.2639 0.664322 53.1406 0.508797 52.9849C0.353273 52.8293 0.230035 52.6445 0.146167 52.4411C0.0622978 52.2376 0.0194507 52.0197 0.0200876 51.7996C0.0200876 50.8819 0.766352 50.126 1.69375 50.126H56.3063C57.2337 50.126 57.9811 50.8819 57.9811 51.7996Z" fill="#C7754F"/>
<path d="M14.2438 53.4743H1.69736C1.25379 53.4743 0.828398 53.2981 0.514752 52.9844C0.201107 52.6708 0.0249023 52.2454 0.0249023 51.8018C0.0249023 51.3583 0.201107 50.9329 0.514752 50.6192C0.828398 50.3056 1.25379 50.1294 1.69736 50.1294H14.2438C13.314 50.1294 12.5774 50.8781 12.5774 51.7958C12.5774 52.7256 13.314 53.4743 14.2438 53.4743Z" fill="#AB604B"/>
<path d="M34.5439 37.3767V50.1248H1.80725V37.3767C1.80872 35.6162 2.40382 33.9077 3.49636 32.5272C4.58889 31.1468 6.11503 30.1751 7.82808 29.7692L12.2743 28.7162L18.1792 27.3154L22.0759 28.2428L28.5423 29.7704C30.2515 30.1806 31.7729 31.1541 32.8616 32.534C33.9502 33.914 34.5428 35.619 34.5439 37.3767Z" fill="#5B5E8B"/>
<path d="M17.7626 44.5218H18.5873V50.126H17.7626V44.5218ZM19.4435 27.6125L14.792 28.7114L10.3482 29.7716C8.6348 30.1767 7.108 31.1477 6.01459 32.5277C4.92119 33.9077 4.32507 35.6161 4.32258 37.3767V50.1248H1.80847V37.3767C1.80847 33.7553 4.30085 30.6145 7.82447 29.7716L12.2682 28.7114L18.1768 27.3179L19.4423 27.6125H19.4435Z" fill="#312E4B"/>
<path d="M24.0769 28.7066L21.5724 36.5364L18.1792 34.1297L14.7872 36.5364L12.2743 28.7163L18.1309 27.3252H18.2384L22.076 28.2429L24.0769 28.7066Z" fill="#DEDDFF"/>
<path d="M22.2257 26.4629V29.5421C22.2257 30.5625 21.8203 31.541 21.0988 32.2625C20.3773 32.984 19.3988 33.3894 18.3784 33.3894C17.3581 33.3894 16.3795 32.984 15.658 32.2625C14.9365 31.541 14.5312 30.5625 14.5312 29.5421V26.4641L22.2257 26.4629Z" fill="#FFAF93"/>
<path d="M16.8581 32.2424L16.8823 32.2666C17.4509 32.8442 18.1924 33.2207 18.9943 33.3389C16.8775 33.7615 14.5312 32.0661 14.5312 29.5436V27.6779C15.972 28.6165 17.7057 28.9973 19.4073 28.749C17.5923 28.487 15.979 27.4883 15.0323 26.3037H22.2257V28.8999C20.8612 29.6245 19.3155 29.9276 17.9932 29.8454C16.7156 29.7814 15.9609 31.338 16.8581 32.2424Z" fill="#EE8778"/>
<path d="M25.4281 13.4624V21.7727C25.4403 22.7062 25.267 23.6328 24.9182 24.4987C24.5694 25.3647 24.0522 26.1527 23.3964 26.8171C22.7406 27.4816 21.9594 28.0091 21.0981 28.3692C20.2368 28.7292 19.3125 28.9147 18.379 28.9147C17.4455 28.9147 16.5212 28.7292 15.6599 28.3692C14.7986 28.0091 14.0174 27.4816 13.3616 26.8171C12.7059 26.1527 12.1886 25.3647 11.8398 24.4987C11.491 23.6328 11.3177 22.7062 11.3299 21.7727V13.4624H25.4281Z" fill="#FFAF93"/>
<path d="M25.4257 13.459V21.7693C25.4257 21.9927 25.4172 22.2149 25.3943 22.4286C25.3701 22.739 25.3146 23.0397 25.2433 23.3415C24.892 24.8983 24.0211 26.289 22.774 27.2847C21.5269 28.2805 19.9779 28.8221 18.3821 28.8202C17.4561 28.8204 16.5393 28.6381 15.6838 28.2838C14.8283 27.9295 14.0511 27.4101 13.3964 26.7553C12.7417 26.1005 12.2225 25.3232 11.8684 24.4677C11.5142 23.6122 11.3321 22.6952 11.3324 21.7693V13.459H25.4257Z" fill="#FFAF93"/>
<path d="M26.9315 11.4058V20.2728H25.4293V13.4586H11.3324V20.2716H9.79034V11.4058H26.9315Z" fill="#8B4F4F"/>
<path d="M27.9084 19.9601C27.9097 20.2876 27.8461 20.6121 27.7214 20.9149C27.5966 21.2177 27.4132 21.4929 27.1816 21.7245C26.95 21.956 26.6749 22.1395 26.3721 22.2642C26.0693 22.389 25.7447 22.4525 25.4172 22.4512V17.4834C26.7999 17.4834 27.9084 18.5919 27.9084 19.9601Z" fill="#FFAF93"/>
<path d="M26.0826 17.5839C25.8667 17.521 25.6433 17.4877 25.4184 17.4848V22.4515C25.6503 22.4515 25.87 22.4092 26.0826 22.3513V17.5839ZM13.3804 12.7319V21.7692C13.3808 23.4619 13.9895 25.098 15.0956 26.3793C16.2018 27.6605 17.7316 28.5015 19.406 28.7488C17.7049 28.9969 15.9717 28.6161 14.5312 27.6777C13.5475 27.0377 12.7395 26.1619 12.1806 25.13C11.6217 24.0981 11.3297 22.9428 11.3312 21.7692V22.4527C10.814 22.4538 10.3094 22.2937 9.88747 21.9947C9.46554 21.6957 9.14729 21.2726 8.977 20.7843C8.8067 20.296 8.79283 19.7668 8.9373 19.2702C9.08178 18.7736 9.37742 18.3345 9.78311 18.0137C10.2118 17.6805 10.7443 17.4824 11.3324 17.4824V12.7319H13.3804ZM18.9363 20.8237V21.8308C18.9363 21.9948 18.8712 22.152 18.7552 22.268C18.6393 22.3839 18.482 22.4491 18.318 22.4491C18.1541 22.4491 17.9968 22.3839 17.8809 22.268C17.7649 22.152 17.6998 21.9948 17.6998 21.8308V20.8237C17.6998 20.6597 17.7649 20.5025 17.8809 20.3865C17.9968 20.2706 18.1541 20.2054 18.318 20.2054C18.482 20.2054 18.6393 20.2706 18.7552 20.3865C18.8712 20.5025 18.9363 20.6597 18.9363 20.8237Z" fill="#EE8778"/>
<path d="M16.171 23.7231C16.2813 24.2253 16.5599 24.6748 16.9606 24.997C17.3613 25.3192 17.86 25.4949 18.3742 25.4949C18.8884 25.4949 19.3871 25.3192 19.7878 24.997C20.1885 24.6748 20.467 24.2253 20.5774 23.7231H16.171Z" fill="#EE8778"/>
<path d="M16.3836 18.3469C16.3125 18.0228 16.1328 17.7328 15.8743 17.5249C15.6158 17.317 15.294 17.2036 14.9623 17.2036C14.6306 17.2036 14.3088 17.317 14.0503 17.5249C13.7918 17.7328 13.6121 18.0228 13.541 18.3469H16.3836ZM23.2159 18.3469C23.1443 18.0234 22.9644 17.7341 22.7061 17.5268C22.4478 17.3194 22.1265 17.2064 21.7952 17.2064C21.4639 17.2064 21.1426 17.3194 20.8843 17.5268C20.626 17.7341 20.4461 18.0234 20.3745 18.3469H23.2159Z" fill="#312E4B"/>
<path d="M26.9315 12.7985C23.0951 19.7021 9.79034 12.7985 9.79034 12.7985V11.5064C9.79034 10.2349 10.2613 8.99232 11.1826 8.12047C15.9814 3.54145 21.902 7.61934 21.902 7.61934C21.902 7.61934 24.9777 6.32726 26.4207 8.88122C27.1404 10.1467 26.8735 11.4424 26.9315 12.7985Z" fill="#AB604B"/>
<path d="M13.4299 6.60498C12.5996 6.97723 11.8398 7.4899 11.1839 8.12045C10.2613 8.9923 9.79034 10.2337 9.79034 11.5064V12.7985C9.79034 12.7985 11.2925 13.5774 13.4299 14.349V6.60498Z" fill="#8B4F4F"/>
<path d="M24.0768 28.7065L26.7745 35.0896H24.0768L25.7275 37.7885L18.1755 47.1313L24.0768 28.7065Z" fill="#312E4B"/>
<path d="M12.2755 28.7065L9.57782 35.0896H12.2755L10.6248 37.7885L18.1756 47.1313L12.2755 28.7065Z" fill="#312E4B"/>
<path d="M21.5736 36.536L18.1804 47.1298L14.7872 36.536L18.1804 34.1294L21.5736 36.536Z" fill="#C6C6F7"/>
<path d="M18.9726 36.7884L19.5039 42.9831L18.1804 47.1298L16.8557 42.9831L17.3871 36.7884L16.5949 35.25L18.1804 34.1294L19.7563 35.25L18.9726 36.7884Z" fill="#E83D62"/>
<path d="M32.4584 42.0681V43.5498C32.4592 43.593 32.4515 43.636 32.4356 43.6762C32.4198 43.7165 32.3961 43.7532 32.3661 43.7843C32.336 43.8153 32.3001 43.8402 32.2604 43.8573C32.2207 43.8745 32.178 43.8837 32.1348 43.8843H25.3339C25.2906 43.8837 25.2479 43.8745 25.2083 43.8573C25.1686 43.8402 25.1327 43.8153 25.1026 43.7843C25.0725 43.7532 25.0489 43.7165 25.033 43.6762C25.0172 43.636 25.0094 43.593 25.0102 43.5498V42.0681C25.0102 41.8822 25.1576 41.7349 25.3339 41.7349H32.1348C32.3111 41.7349 32.4584 41.8822 32.4584 42.0681Z" fill="#312E4B"/>
<path d="M47.2944 1.7601V9.91105C47.2944 10.8747 46.5071 11.662 45.5434 11.662H36.4385L34.3181 13.5796C33.9667 13.8984 33.4052 13.5965 33.48 13.1195L33.7071 11.662H32.1819C31.9558 11.6614 31.732 11.6162 31.5233 11.5291C31.3146 11.4419 31.1252 11.3146 30.9657 11.1542C30.8063 10.9939 30.68 10.8037 30.594 10.5945C30.5081 10.3854 30.4642 10.1613 30.4648 9.93519V1.79391C30.4648 0.83029 31.2521 0.0429688 32.2157 0.0429688H45.5772C46.524 0.0429688 47.2944 0.813384 47.2944 1.7601Z" fill="#E83D62"/>
<path d="M34.2432 11.6605H32.1783C31.2364 11.6605 30.4636 10.8877 30.4636 9.93376V1.79489C30.4636 0.828851 31.2485 0.0439453 32.2145 0.0439453H34.2794C33.3134 0.0439453 32.5285 0.828851 32.5285 1.79489V9.93376C32.5285 10.8877 33.3013 11.6605 34.2432 11.6605ZM44.2562 3.45768C44.2559 3.51977 44.2432 3.58118 44.2189 3.63832C44.1946 3.69546 44.1591 3.74718 44.1146 3.79046C44.0701 3.83374 44.0174 3.86772 43.9596 3.89041C43.9018 3.91309 43.8401 3.92403 43.778 3.92259H42.655C42.594 3.92259 42.5336 3.91055 42.4772 3.88717C42.4209 3.8638 42.3697 3.82953 42.3266 3.78635C42.2836 3.74316 42.2494 3.6919 42.2262 3.6355C42.203 3.5791 42.1911 3.51868 42.1913 3.45768C42.1913 3.19444 42.399 2.98674 42.655 2.98674H43.778C44.0485 2.98674 44.2562 3.19444 44.2562 3.45768Z" fill="#CE2955"/>
<path d="M44.0762 8.25414C44.0769 8.31531 44.0653 8.376 44.0421 8.43263C44.019 8.48926 43.9847 8.54069 43.9414 8.5839C43.8981 8.6271 43.8466 8.66121 43.7899 8.68421C43.7332 8.70721 43.6725 8.71864 43.6113 8.71784H34.5909C34.4671 8.71785 34.3482 8.66906 34.2601 8.58204C34.1719 8.49502 34.1216 8.37678 34.12 8.25293C34.12 8.12803 34.1696 8.00824 34.2579 7.91992C34.3463 7.8316 34.466 7.78199 34.5909 7.78199H43.6113C43.8746 7.78199 44.0762 7.99089 44.0762 8.25414ZM34.12 3.45776C34.12 3.19451 34.3289 2.98682 34.5849 2.98682H40.9294C41.1866 2.98682 41.3943 3.19451 41.3943 3.45776C41.3944 3.51886 41.3825 3.57938 41.3592 3.63586C41.3359 3.69234 41.3017 3.74365 41.2585 3.78685C41.2152 3.83005 41.1639 3.86429 41.1075 3.8876C41.051 3.91091 40.9905 3.92282 40.9294 3.92266H34.5849C34.5238 3.92282 34.4633 3.91091 34.4068 3.8876C34.3503 3.86429 34.299 3.83005 34.2558 3.78685C34.2126 3.74365 34.1784 3.69234 34.1551 3.63586C34.1318 3.57938 34.1198 3.51886 34.12 3.45776ZM44.0762 5.85595C44.0769 5.91712 44.0653 5.97781 44.0421 6.03444C44.019 6.09107 43.9847 6.1425 43.9414 6.18571C43.8981 6.22891 43.8466 6.26302 43.7899 6.28602C43.7332 6.30902 43.6725 6.32045 43.6113 6.31965H34.5909C34.4673 6.31966 34.3486 6.27104 34.2605 6.18428C34.1724 6.09752 34.1219 5.97959 34.12 5.85595C34.12 5.73105 34.1696 5.61126 34.2579 5.52294C34.3463 5.43462 34.466 5.385 34.5909 5.385H43.6113C43.8746 5.385 44.0762 5.5927 44.0762 5.85595Z" fill="#CE2955"/>
<path d="M57.9811 51.7996C57.9811 52.7282 57.2337 53.4745 56.3063 53.4745H1.69375C1.47372 53.475 1.25577 53.432 1.05242 53.348C0.849069 53.2639 0.664322 53.1406 0.508797 52.9849C0.353273 52.8293 0.230035 52.6445 0.146167 52.4411C0.0622978 52.2376 0.0194507 52.0197 0.0200876 51.7996C0.0200876 50.8819 0.766352 50.126 1.69375 50.126H56.3063C57.2337 50.126 57.9811 50.8819 57.9811 51.7996Z" fill="#C7754F"/>
<path d="M14.2438 53.4743H1.69736C1.25379 53.4743 0.828398 53.2981 0.514752 52.9844C0.201107 52.6708 0.0249023 52.2454 0.0249023 51.8018C0.0249023 51.3583 0.201107 50.9329 0.514752 50.6192C0.828398 50.3056 1.25379 50.1294 1.69736 50.1294H14.2438C13.314 50.1294 12.5774 50.8781 12.5774 51.7958C12.5774 52.7256 13.314 53.4743 14.2438 53.4743Z" fill="#AB604B"/>
<path d="M39.397 27.0692C39.405 27.4655 39.3338 27.8594 39.1876 28.2279C39.0415 28.5964 38.8233 28.9321 38.5458 29.2152C38.2683 29.4983 37.9372 29.7232 37.5717 29.8767C37.2062 30.0303 36.8138 30.1094 36.4174 30.1094C36.0209 30.1094 35.6285 30.0303 35.263 29.8767C34.8976 29.7232 34.5664 29.4983 34.2889 29.2152C34.0114 28.9321 33.7932 28.5964 33.6471 28.2279C33.5009 27.8594 33.4298 27.4655 33.4377 27.0692C33.4534 26.2893 33.7743 25.5467 34.3313 25.0007C34.8884 24.4547 35.6373 24.1489 36.4174 24.1489C37.1974 24.1489 37.9463 24.4547 38.5034 25.0007C39.0605 25.5467 39.3813 26.2893 39.397 27.0692ZM51.9869 27.0692C51.9948 27.4655 51.9237 27.8594 51.7775 28.2279C51.6314 28.5964 51.4132 28.9321 51.1357 29.2152C50.8582 29.4983 50.527 29.7232 50.1616 29.8767C49.7961 30.0303 49.4037 30.1094 49.0072 30.1094C48.6108 30.1094 48.2184 30.0303 47.8529 29.8767C47.4875 29.7232 47.1563 29.4983 46.8788 29.2152C46.6013 28.9321 46.3831 28.5964 46.237 28.2279C46.0908 27.8594 46.0196 27.4655 46.0276 27.0692C46.0433 26.2893 46.3642 25.5467 46.9212 25.0007C47.4783 24.4547 48.2272 24.1489 49.0072 24.1489C49.7873 24.1489 50.5362 24.4547 51.0933 25.0007C51.6503 25.5467 51.9712 26.2893 51.9869 27.0692ZM38.0457 35.0571L38.9152 39.3511H46.2716L47.1386 35.0571H38.0457Z" fill="#FFAF93"/>
<path d="M57.9812 48.2614V57.9568H27.1042V48.2602C27.104 47.3553 27.2822 46.4593 27.6284 45.6234C27.9746 44.7874 28.4822 44.0278 29.122 43.3881C29.7619 42.7483 30.5215 42.2409 31.3576 41.8948C32.1936 41.5487 33.0896 41.3708 33.9945 41.3711H51.0957C52.0001 41.3711 52.8957 41.5493 53.7311 41.8956C54.5666 42.2419 55.3257 42.7494 55.9649 43.3892C56.6041 44.029 57.111 44.7885 57.4565 45.6243C57.8021 46.4601 57.9795 47.3558 57.9788 48.2602L57.9812 48.2614Z" fill="#65B9FF"/>
<path d="M38.5915 41.3726C37.687 41.3721 36.7912 41.5499 35.9554 41.8958C35.1196 42.2417 34.3601 42.7489 33.7205 43.3885C33.0808 44.028 32.5734 44.7874 32.2274 45.6231C31.8813 46.4589 31.7034 47.3546 31.7037 48.2592V57.957H27.1053V48.2604C27.1049 47.3558 27.2827 46.4599 27.6287 45.624C27.9747 44.7881 28.482 44.0286 29.1217 43.3889C29.7614 42.7492 30.5209 42.2419 31.3568 41.8959C32.1927 41.5499 33.0885 41.3721 33.9932 41.3726H38.5915Z" fill="#3E7FFF"/>
<path d="M48.9861 40.3147V41.3701H35.8203V40.3159C35.8203 39.1543 36.7621 38.2124 37.9238 38.2124H46.8838C48.0455 38.2124 48.9861 39.1531 48.9861 40.3147Z" fill="#DEDDFF"/>
<path d="M39.9802 38.21C38.821 38.21 37.8803 39.1518 37.8803 40.3159V41.3725H35.8226V40.3159C35.8226 39.1506 36.7645 38.21 37.9226 38.21H39.9802Z" fill="#C6C6F7"/>
<path d="M48.421 34.3033C46.8198 36.4419 44.639 37.4876 41.9244 37.1374C36.1161 36.39 34.0669 28.8138 34.143 22.9463C34.1732 20.7075 35.6403 18.4591 37.5205 18.0051C38.4551 17.7805 39.1929 17.2817 39.9959 16.8446C41.0719 16.2565 42.3398 15.8617 43.6307 16.2783L43.1959 16.4534C46.3984 16.6586 49.7408 17.7261 50.4847 20.8537C52.1427 27.8236 49.7191 32.5705 48.421 34.3033Z" fill="#5B5E8B"/>
<path d="M43.7707 37.1593C43.1887 37.2269 42.5728 37.2196 41.9232 37.1387C36.1245 36.3852 34.062 28.8356 34.1417 22.9452C34.1756 20.7113 35.6391 18.4556 37.5205 18.0027C39.5069 17.527 40.9137 15.6263 43.365 16.195C41.6937 16.5356 40.7808 17.6248 39.2002 18.0027C37.3248 18.4556 35.8552 20.7113 35.8214 22.9452C35.7526 28.8525 37.8223 36.3876 43.6017 37.1387L43.7707 37.1593Z" fill="#312E4B"/>
</svg>
