<svg width="64" height="64" viewBox="0 0 64 64" fill="none" xmlns="http://www.w3.org/2000/svg">
<g clip-path="url(#clip0_477_171)">
<path d="M55.6275 33.2966C57.2242 33.2966 58.7623 32.8352 60.1173 31.9251C62.3548 30.4109 63.9116 27.6624 63.974 24.8005C64.0436 23.354 63.974 21.814 63.7616 20.0911C63.6994 19.5948 63.4466 19.1444 63.0511 18.8386C62.6593 18.5328 62.1613 18.4028 61.6631 18.4596C59.7543 18.7052 57.7983 19.6132 56.1685 21.0344C56.0917 20.4153 55.9488 19.7847 55.8188 19.1613C57.6498 18.2698 59.0689 16.827 59.8023 15.0153C60.846 12.5031 60.5164 9.405 58.938 6.93126C58.0554 5.54152 57.1107 4.27078 56.1329 3.15566C55.448 2.37379 54.2653 2.30241 53.4889 2.97991C51.7971 4.46128 50.6545 6.61089 50.1857 9.21462C49.7938 11.5419 50.021 13.6988 50.8706 15.6416C55.0561 24.8783 51.4637 36.1297 43.0594 41.3824C42.0046 42.0599 41.3748 43.2117 41.3748 44.6088C41.3748 45.6452 42.1841 46.4545 43.2205 46.4545C44.2569 46.4545 45.0662 45.5848 45.0662 44.5484C45.2585 44.4285 45.4416 44.3003 45.6292 44.1749C47.128 45.491 48.9517 46.2133 50.9146 46.2147H50.9768C55.5765 46.2147 58.5893 42.4426 60.5129 38.2478C60.9376 37.3268 60.5495 36.2373 59.645 35.7868C57.933 34.937 55.9958 34.6891 53.7664 34.9611C54.0565 34.3873 54.3241 33.8023 54.5684 33.2076C54.9227 33.2522 55.2779 33.2966 55.6275 33.2966Z" fill="#FF9100"/>
<path d="M20.3178 40.9594C11.4378 34.65 9.4992 23.8364 13.2463 15.4676L13.2268 15.4582C14.0128 13.5816 14.2277 11.4837 13.8432 9.19625C13.3818 6.61626 12.2428 4.46665 10.5437 2.97991C9.76732 2.30241 8.58445 2.37379 7.89971 3.15566C6.92196 4.27078 5.97709 5.54152 5.0946 6.92939C3.51623 9.40675 3.18661 12.5067 4.22673 14.9951C4.95898 16.8186 6.37772 18.2648 8.20608 19.1579C8.07858 19.7869 7.96021 20.4141 7.88296 21.0517C6.24534 19.6184 4.25098 18.7057 2.33662 18.4593C1.84587 18.4062 1.34425 18.5326 0.948624 18.8383C0.553002 19.1441 0.296753 19.5963 0.238129 20.0908C0.0293797 21.7937 -0.0402449 23.3354 0.0220048 24.7692C0.102629 27.7354 1.71437 30.4949 3.93723 31.9395C5.23722 32.8385 6.77534 33.2981 8.38671 33.2981C8.76708 33.2981 9.15258 33.2527 9.5382 33.2012C9.77345 33.7837 10.0232 34.3575 10.3038 34.9206C8.61333 34.6965 6.49159 34.7496 4.41698 35.781C3.96648 36.0043 3.62598 36.4017 3.46848 36.8815C3.31099 37.3612 3.35861 37.8831 3.58936 38.3298C4.24123 39.5695 5.01385 41.0049 5.96609 42.2904C7.55821 44.6117 10.1711 46.2034 13.2499 46.2034C15.1197 46.2034 16.9164 45.4847 18.3986 44.1965C18.6231 44.3552 18.834 44.505 18.8713 44.5317L18.8749 44.6085C18.8749 45.6449 19.7135 46.4835 20.7499 46.4835C21.7863 46.4835 22.6249 45.6449 22.6249 44.6085C22.6249 42.5927 21.3468 41.6882 20.3178 40.9594ZM31.9998 46.4837C30.9634 46.4837 30.1248 45.645 30.1248 44.6087V37.1087C30.1248 36.0723 30.9634 35.2337 31.9998 35.2337C33.0362 35.2337 33.8748 36.0723 33.8748 37.1087V44.6087C33.8748 45.645 33.0362 46.4837 31.9998 46.4837Z" fill="#FABE2C"/>
<path d="M33.8748 44.6088V37.1089C33.8748 36.0725 33.0362 35.2339 31.9998 35.2339V46.4838C33.0362 46.4838 33.8748 45.6452 33.8748 44.6088Z" fill="#FF9100"/>
<path d="M32.0181 38.9839C31.8459 38.9839 31.6702 38.9601 31.5053 38.9125C22.9655 36.4754 16.9999 28.5817 16.9999 19.7157V8.98404C17 8.65605 17.0863 8.33385 17.2502 8.04976C17.4142 7.76567 17.6499 7.52967 17.9338 7.36542C18.5124 7.02667 19.2301 7.02667 19.8014 7.35442C19.8306 7.37092 22.7127 8.98404 25.4374 8.98404C27.4038 8.98404 29.8795 6.6788 30.59 5.87131C31.3077 5.06568 32.6919 5.06568 33.4098 5.87131C34.1203 6.6788 36.5958 8.98404 38.5624 8.98404C41.2686 8.98404 44.1654 7.37267 44.1947 7.3563C44.777 7.02667 45.4911 7.02855 46.0661 7.3618C46.3502 7.52682 46.5859 7.76352 46.7498 8.04822C46.9137 8.33293 46.9999 8.65566 47 8.98416V19.7251C47 28.5855 41.0528 36.4755 32.5347 38.9107C32.3668 38.9594 32.1929 38.984 32.0181 38.9839Z" fill="#FED843"/>
<path d="M32.0181 38.984C32.1902 38.984 32.3659 38.9603 32.5344 38.9108C41.0525 36.4755 46.9997 28.5855 46.9997 19.7251V8.98419C46.9997 8.65569 46.9134 8.33296 46.7495 8.04826C46.5856 7.76356 46.3499 7.52686 46.0659 7.36183C45.4909 7.02858 44.7767 7.0267 44.1945 7.35633C44.1653 7.37283 41.2685 8.98407 38.5622 8.98407C36.5957 8.98407 34.1201 6.67883 33.4096 5.87134C33.0507 5.46846 32.5252 5.26709 31.9997 5.26709V38.9814C32.0059 38.9815 32.0119 38.984 32.0181 38.984Z" fill="#FABE2C"/>
<path d="M32.0145 30.9399C31.7105 30.9399 31.4102 30.8666 31.1318 30.7201C27.0414 28.543 24.4999 24.3262 24.4999 19.7156V18.3222C24.4999 17.3426 25.2542 16.5296 26.2284 16.4527C27.8324 16.3282 29.473 15.8174 31.11 14.9366C31.3833 14.7888 31.6891 14.7114 31.9998 14.7114C32.3106 14.7114 32.6164 14.7888 32.8897 14.9366C34.5267 15.8174 36.1673 16.3282 37.7713 16.4527C38.7454 16.5296 39.4998 17.3426 39.4998 18.3222V19.7248C39.4998 24.3244 36.9693 28.5377 32.9007 30.7184C32.628 30.8639 32.3236 30.94 32.0145 30.9399Z" fill="#FABE2C"/>
<path d="M32.0144 30.94C32.3184 30.94 32.6223 30.8667 32.9007 30.7185C36.9693 28.5377 39.4998 24.3244 39.4998 19.7249V18.3223C39.4998 17.3427 38.7454 16.5297 37.7713 16.4528C36.1673 16.3283 34.5267 15.8174 32.8897 14.9367C32.6163 14.789 32.3105 14.7115 31.9998 14.7114V30.9363C32.0048 30.9363 32.0094 30.94 32.0144 30.94Z" fill="#FF9100"/>
<path d="M43.2498 42.7339H20.7499C19.6998 42.7339 18.8749 43.5588 18.8749 44.6089V59.6088H45.1248V44.6089C45.1248 43.5588 44.2999 42.7339 43.2498 42.7339Z" fill="#646D73"/>
<path d="M43.2498 42.7339H31.9998V59.6088H45.1247V44.6089C45.1247 43.5588 44.2999 42.7339 43.2498 42.7339Z" fill="#474F54"/>
<path d="M35.7498 53.9839H28.2498C27.2135 53.9839 26.3748 53.1452 26.3748 52.1089C26.3748 51.0725 27.2135 50.2339 28.2498 50.2339H35.7498C36.7862 50.2339 37.6248 51.0725 37.6248 52.1089C37.6248 53.1452 36.7862 53.9839 35.7498 53.9839Z" fill="#FED843"/>
<path d="M35.7498 50.2339H31.9998V53.9839H35.7498C36.7862 53.9839 37.6248 53.1452 37.6248 52.1089C37.6248 51.0725 36.7862 50.2339 35.7498 50.2339Z" fill="#FABE2C"/>
<path d="M46.9997 61.4839H16.9999C15.9635 61.4839 15.1249 60.6452 15.1249 59.6089C15.1249 58.5725 15.9635 57.7339 16.9999 57.7339H46.9997C48.0361 57.7339 48.8747 58.5725 48.8747 59.6089C48.8747 60.6452 48.0361 61.4839 46.9997 61.4839Z" fill="#474F54"/>
<path d="M46.9997 57.7339H31.9998V61.4839H46.9997C48.0361 61.4839 48.8747 60.6452 48.8747 59.6089C48.8747 58.5725 48.0361 57.7339 46.9997 57.7339Z" fill="#32393F"/>
</g>
<defs>
<clipPath id="clip0_477_171">
<rect width="64" height="64" fill="white"/>
</clipPath>
</defs>
</svg>
