<svg width="120" height="120" viewBox="0 0 120 120" fill="none" xmlns="http://www.w3.org/2000/svg">
<g clip-path="url(#clip0_433_160)">
<path d="M118.932 21.2768C120.395 25.1651 120.379 29.4865 118.738 33.3031C117.391 36.4345 114.832 39.6007 110.021 41.329C94.242 46.9976 94.3029 15.1997 94.3029 15.1997L118.558 20.2831L118.932 21.2768ZM1.80984 100.758C0.346875 96.8693 0.363281 92.5479 2.00414 88.7313C3.35039 85.5999 5.91023 82.4337 10.7208 80.7054C26.4998 75.0368 26.4389 106.835 26.4389 106.835L2.18367 101.751L1.80984 100.758Z" fill="#BAD5E5"/>
<path d="M59.8477 119.848C92.9006 119.848 119.695 93.0529 119.695 60C119.695 26.9471 92.9006 0.152344 59.8477 0.152344C26.7947 0.152344 0 26.9471 0 60C0 93.0529 26.7947 119.848 59.8477 119.848Z" fill="#33D8DD"/>
<path d="M119.66 62.0154C119.682 61.346 119.698 60.675 119.698 60.0002C119.698 59.3254 119.682 58.6544 119.66 57.985H91.118C90.9841 49.5414 90.0122 41.385 88.2794 33.9168C96.1847 32.9662 103.757 31.6214 110.798 29.8931C111.019 29.8383 111.229 29.7463 111.42 29.621C110.718 28.4324 109.976 27.2684 109.194 26.1311C102.334 27.7842 94.9685 29.0725 87.277 29.9784C85.9542 25.214 84.3066 20.7811 82.357 16.7953C78.6865 9.29082 74.1959 3.88988 69.2421 0.887305C66.1349 0.397262 62.994 0.151197 59.8484 0.151367C56.7027 0.151197 53.5619 0.397262 50.4546 0.887305C45.5009 3.89012 41.01 9.29105 37.3397 16.7953C35.3902 20.7811 33.7425 25.214 32.4197 29.9784C24.7284 29.0725 17.3632 27.7839 10.503 26.1309C9.71671 27.2745 8.9704 28.4452 8.26547 29.6407C8.44173 29.7482 8.63351 29.828 8.83406 29.8771C15.8937 31.6132 23.4884 32.9632 31.4177 33.9168C29.685 41.385 28.713 49.5414 28.5792 57.985H0.0375C0.0152344 58.6544 0 59.3254 0 60.0002C0 60.675 0.0152344 61.346 0.0375 62.0154H28.5797C28.7372 71.9521 30.0565 81.4905 32.4084 89.9782C25.0085 90.8336 17.8894 92.0322 11.2298 93.5639C10.9726 93.623 10.7294 93.7322 10.5143 93.8852C11.3155 95.0497 12.1576 96.1856 13.039 97.2907C19.5134 95.8406 26.4176 94.705 33.593 93.8997C34.6784 97.2061 35.9304 100.323 37.3402 103.205C41.0107 110.71 45.5013 116.111 50.4551 119.113C53.5623 119.603 56.7032 119.849 59.8488 119.849C62.9945 119.849 66.1353 119.603 69.2426 119.113C74.1963 116.11 78.687 110.71 82.3575 103.205C83.7673 100.323 85.0193 97.2061 86.1047 93.8997C93.2801 94.7048 100.184 95.8406 106.658 97.2907C107.54 96.1856 108.382 95.0498 109.183 93.8854C108.968 93.7322 108.725 93.6228 108.467 93.5636C101.808 92.0322 94.6891 90.8336 87.2895 89.9782C89.6414 81.4905 90.9607 71.9521 91.1182 62.0154H119.66ZM57.8337 117.671C51.5632 116.667 45.6347 110.991 40.9603 101.434C39.7486 98.9568 38.6604 96.2925 37.6992 93.4746C44.2559 92.8624 51.0066 92.5247 57.8337 92.4686V117.671ZM57.8337 88.4388C50.5863 88.4974 43.4217 88.8714 36.472 89.5467C34.1034 81.2547 32.7705 71.8518 32.61 62.0154H57.8337V88.4388ZM57.8337 57.985H32.61C32.7457 49.6647 33.7202 41.655 35.4511 34.365C42.7095 35.1032 50.2163 35.5101 57.8337 35.5713V57.985ZM57.8337 31.5412C50.569 31.4819 43.4093 31.106 36.4814 30.4211C37.7055 26.1424 39.2034 22.1582 40.9603 18.566C45.6347 9.00887 51.5632 3.33348 57.8337 2.32871V31.5412ZM61.8638 2.32895C68.1342 3.33371 74.0627 9.00934 78.7371 18.5662C80.494 22.1582 81.9921 26.1424 83.216 30.4211C76.2879 31.106 69.1282 31.4821 61.8638 31.5414V2.32895ZM78.7371 101.434C74.0627 110.991 68.1342 116.667 61.8638 117.671V92.4686C68.6909 92.5247 75.4416 92.8624 81.9982 93.4746C81.0373 96.2925 79.9488 98.9568 78.7371 101.434ZM83.2254 89.5467C76.2757 88.8714 69.1111 88.4974 61.8638 88.4388V62.0154H87.0874C86.9271 71.8518 85.594 81.2547 83.2254 89.5467ZM61.8638 57.985V35.5713C69.4809 35.5101 76.9877 35.1032 84.2463 34.365C85.977 41.655 86.9517 49.665 87.0874 57.9853H61.8638V57.985Z" fill="#10C4C4"/>
<path d="M59.8488 0.151367C57.3281 0.151367 54.8447 0.309102 52.4058 0.61168C81.9466 4.2766 104.812 29.4672 104.812 60.0002C104.812 90.5332 81.9466 115.724 52.4058 119.389C54.875 119.695 57.3607 119.849 59.8488 119.849C92.9023 119.849 119.698 93.0539 119.698 60.0002C119.698 26.9465 92.9023 0.151367 59.8488 0.151367Z" fill="#10C4C4"/>
<path d="M108.467 93.5632C104.483 92.647 100.332 91.8527 96.0581 91.177C95.2845 92.4406 94.4644 93.675 93.5993 94.8778C98.1028 95.5483 102.472 96.3522 106.658 97.29C106.868 97.0272 107.075 96.7626 107.28 96.4964C107.305 96.4638 107.33 96.4307 107.355 96.3982C107.986 95.5763 108.596 94.7382 109.183 93.8847C108.968 93.7316 108.724 93.6223 108.467 93.5632ZM119.66 57.9848H104.774C104.796 58.6542 104.812 59.3252 104.812 60C104.812 60.6747 104.796 61.3457 104.774 62.0151H119.66C119.669 61.7357 119.676 61.4561 119.683 61.1761C119.69 60.7846 119.697 60.3932 119.697 60.0002C119.697 59.6072 119.69 59.2155 119.683 58.8243C119.676 58.544 119.669 58.2642 119.66 57.9848ZM58.4215 0.169883C58.0432 0.178816 57.665 0.19116 57.2869 0.206914C57.0258 0.21793 56.7652 0.231055 56.5048 0.245586C56.403 0.251211 56.3011 0.256133 56.1994 0.262227C55.8415 0.283789 55.4845 0.308164 55.1283 0.336289C55.0737 0.340508 55.0195 0.345898 54.9649 0.350352C54.6579 0.375195 54.3513 0.402383 54.0455 0.431914C53.944 0.441758 53.843 0.452305 53.7417 0.462617C53.4686 0.49031 53.1957 0.51992 52.923 0.551445C52.8347 0.561758 52.7461 0.571602 52.658 0.582383C52.5773 0.591992 52.4974 0.603242 52.417 0.61332C55.6138 1.0101 58.7731 1.66569 61.8637 2.57363V2.32871C63.7861 2.63668 65.6761 3.38574 67.508 4.54918C71.5142 6.17959 75.3314 8.24043 78.8925 10.6954C75.9884 6.30629 72.7305 3.00137 69.2426 0.88707H69.2423C68.9381 0.83979 68.6335 0.794789 68.3285 0.75207C68.1968 0.73332 68.0653 0.71457 67.9334 0.696758C67.6481 0.658162 67.3625 0.621599 67.0767 0.58707C66.9162 0.567852 66.7552 0.550039 66.5944 0.531992C66.3237 0.501523 66.053 0.470586 65.7811 0.443867C65.3829 0.404537 64.9844 0.369145 64.5855 0.337695C64.3908 0.322461 64.1948 0.310742 63.9996 0.297148C63.7267 0.277979 63.4536 0.260713 63.1805 0.245352C62.6902 0.218701 62.1996 0.197918 61.7088 0.183008C61.552 0.178086 61.3955 0.172695 61.2384 0.168945C60.7752 0.157799 60.3119 0.151939 59.8486 0.151367C59.4846 0.151367 59.1218 0.155586 58.7595 0.162148C58.6467 0.164023 58.5342 0.167305 58.4215 0.169883ZM98.1265 32.4928C102.5 31.7533 106.74 30.8889 110.798 29.8929C111.019 29.8381 111.23 29.7461 111.42 29.6207C110.896 28.733 110.349 27.8588 109.78 26.9993L109.769 26.9826C109.58 26.6971 109.388 26.4133 109.194 26.1311C104.98 27.1467 100.574 28.023 96.0199 28.7592C96.7666 29.9781 97.4692 31.2234 98.1265 32.4928ZM61.7091 119.817C62.1998 119.802 62.6904 119.781 63.1807 119.755C63.4539 119.739 63.7269 119.722 63.9998 119.703C64.1951 119.69 64.391 119.678 64.5858 119.662C64.9854 119.631 65.3838 119.595 65.7813 119.556C66.0532 119.529 66.3239 119.499 66.5946 119.468C66.7556 119.45 66.9166 119.432 67.0772 119.413C67.4956 119.363 67.9134 119.307 68.3306 119.248C68.6348 119.204 68.9391 119.161 69.2416 119.113L69.2428 119.113C72.7308 116.998 75.9886 113.694 78.8927 109.304C75.3317 111.759 71.5145 113.82 67.5082 115.451C65.6763 116.614 63.7863 117.363 61.864 117.671V117.426C58.7733 118.334 55.614 118.99 52.4173 119.387C52.4977 119.397 52.5776 119.408 52.6582 119.418C52.7466 119.428 52.8352 119.438 52.9237 119.448C53.1954 119.48 53.4677 119.509 53.7405 119.537C53.8427 119.547 53.9449 119.558 54.0471 119.568C54.3523 119.598 54.6584 119.624 54.9649 119.65C55.0195 119.654 55.0739 119.659 55.1288 119.664C55.4848 119.692 55.842 119.716 56.1998 119.738C56.3016 119.744 56.4035 119.749 56.5052 119.754C56.8901 119.776 57.2752 119.793 57.6605 119.808C57.9138 119.817 58.1677 119.824 58.422 119.83C58.5347 119.833 58.6472 119.836 58.7599 119.838C59.1223 119.845 59.4853 119.849 59.8491 119.849C60.3138 119.849 60.777 119.842 61.2389 119.831C61.3957 119.827 61.5523 119.822 61.7091 119.817Z" fill="#11B9C1"/>
<path d="M61.5063 78.8916L72.6192 82.9948C72.9666 83.123 73.0493 83.5803 72.7673 83.82C52.59 100.975 26.1797 106.267 0.963047 97.714C1.14058 98.7352 1.41293 99.7375 1.77656 100.708L2.14969 101.702C7.53398 114.293 21.1474 121.137 34.4998 118.099C52.1963 114.073 68.4914 104.717 80.4914 91.7114C80.7359 91.4466 81.1718 91.5288 81.3002 91.8656L85.8234 103.736C85.9924 104.179 86.6316 104.141 86.7466 103.68L95.2455 69.6814C95.3351 69.3228 95.0067 69 94.6498 69.0956L61.5485 77.9686C61.0922 78.091 61.0629 78.7278 61.5063 78.8916ZM59.2355 43.1424L48.1226 39.0392C47.7752 38.911 47.6925 38.4537 47.9745 38.2139C68.1518 21.0588 94.5621 15.7667 119.779 24.3199C119.601 23.2988 119.329 22.2964 118.965 21.3258L118.592 20.3318C113.208 7.74119 99.5944 0.896502 86.242 3.93447C68.5455 7.9608 52.2504 17.3173 40.2504 30.3223C40.0059 30.5871 39.57 30.5049 39.4416 30.1681L34.9184 18.2984C34.7494 17.8552 34.1102 17.8931 33.9952 18.3535L25.4962 52.3526C25.4067 52.7112 25.7351 53.0339 26.092 52.9383L59.1933 44.0653C59.6496 43.9428 59.6789 43.306 59.2355 43.1424Z" fill="#E1EFFB"/>
</g>
<defs>
<clipPath id="clip0_433_160">
<rect width="120" height="120" fill="white"/>
</clipPath>
</defs>
</svg>
