<svg width="120" height="120" viewBox="0 0 120 120" fill="none" xmlns="http://www.w3.org/2000/svg">
<g clip-path="url(#clip0_433_185)">
<path d="M110.342 26.4385V105.634C110.342 110.967 106.018 115.292 100.684 115.292H19.3159C13.9823 115.292 9.65796 110.967 9.65796 105.634V26.4385H110.342Z" fill="#F5F5F5"/>
<path d="M24.1449 115.292H19.3159C13.9823 115.292 9.65796 110.967 9.65796 105.634V26.4385H14.4869V105.634C14.4869 110.967 18.8113 115.292 24.1449 115.292Z" fill="#E6E6E6"/>
<path d="M110.342 30.7847V62.2527C109.714 62.3589 109.07 62.4144 108.41 62.4144H106.72C103.519 62.4144 100.621 61.1179 98.5256 59.0197C96.4274 56.9239 95.1308 54.0265 95.1308 50.8249C95.1308 54.0265 93.8342 56.9239 91.736 59.0197C89.6403 61.1179 86.7429 62.4144 83.5413 62.4144C77.1404 62.4144 71.9517 57.2257 71.9517 50.8249C71.9517 57.2257 66.763 62.4144 60.3622 62.4144H60.1207C56.9191 62.4144 54.0217 61.1179 51.926 59.0197C49.8278 56.9239 48.5312 54.0265 48.5312 50.8249C48.5312 57.2257 43.3425 62.4144 36.9417 62.4144H36.4588C33.2572 62.4144 30.3598 61.1179 28.264 59.0197C26.1658 56.9239 24.8692 54.0265 24.8692 50.8249C24.8692 57.2257 19.6805 62.4144 13.2797 62.4144H11.5895C10.9304 62.4144 10.2857 62.3589 9.65796 62.2527V30.7847H110.342Z" fill="#E6E6E6"/>
<path d="M27.472 26.4384L25.1131 42.63C24.9513 43.9072 24.8692 45.1917 24.8692 46.4787C24.8692 46.6815 24.8644 46.8819 24.8547 47.0823C24.5408 53.203 19.4777 58.0682 13.2797 58.0682H11.5895C8.38793 58.0682 5.49054 56.7716 3.39477 54.6734C1.42938 52.7104 0.1666 50.0449 0.0144869 47.0823C0.00482897 46.8819 0 46.6815 0 46.4787C0 45.2062 0.28008 43.9507 0.82334 42.799L9.65795 26.4384L17.7774 24.0239L27.472 26.4384Z" fill="#FD646F"/>
<path d="M48.5312 26.4384V46.4787C48.5312 46.6815 48.5263 46.8819 48.5167 47.0823C48.2028 53.203 43.1396 58.0682 36.9416 58.0682H36.4587C33.2571 58.0682 30.3597 56.7716 28.264 54.6734C26.2986 52.7104 25.0358 50.0449 24.8837 47.0823C24.874 46.8819 24.8692 46.6815 24.8692 46.4787C24.8692 45.1917 24.9513 43.9072 25.1131 42.63L27.472 26.4384L37.6686 24.0239L48.5312 26.4384Z" fill="#FFC682"/>
<path d="M71.9517 26.4384V46.4787C71.9517 46.6815 71.9469 46.8819 71.9372 47.0823C71.6233 53.203 66.5602 58.0682 60.3622 58.0682H60.1207C53.9227 58.0682 48.8596 53.203 48.5457 47.0823C48.536 46.8819 48.5312 46.6815 48.5312 46.4787V26.4384L60.4829 24.0239L71.9517 26.4384Z" fill="#FD646F"/>
<path d="M95.1308 46.4787C95.1308 46.6815 95.126 46.8819 95.1163 47.0823C94.9642 50.0449 93.7014 52.7104 91.736 54.6734C89.6403 56.7716 86.7429 58.0682 83.5413 58.0682C77.3433 58.0682 72.2801 53.203 71.9662 47.0823C71.9565 46.8819 71.9517 46.6815 71.9517 46.4787V26.4384L82.6962 24.0239L92.7694 26.4384L94.9111 42.6275C95.0559 43.9072 95.1308 45.1917 95.1308 46.4787Z" fill="#FFC682"/>
<path d="M120 46.4787C120 46.6815 119.995 46.8819 119.986 47.0823C119.672 53.203 114.608 58.0682 108.41 58.0682H106.72C103.519 58.0682 100.621 56.7716 98.5255 54.6734C96.5602 52.7104 95.2974 50.0449 95.1453 47.0823C95.1356 46.8819 95.1308 46.6815 95.1308 46.4787C95.1308 45.1917 95.0559 43.9072 94.9111 42.6275L92.7694 26.4384L101.534 24.0239L110.342 26.4384L119.177 42.799C119.449 43.3736 119.655 43.9772 119.792 44.5929C119.93 45.2111 120 45.8412 120 46.4787Z" fill="#FD646F"/>
<path d="M83.6262 72.4303C83.6792 72.1674 83.6732 71.896 83.6086 71.6357C83.544 71.3755 83.4223 71.1328 83.2525 70.9253C83.0826 70.7177 82.8688 70.5505 82.6264 70.4357C82.3841 70.3209 82.1193 70.2613 81.8511 70.2613H41.0335L40.9724 69.973C40.3267 66.9223 37.5948 64.708 34.4767 64.708H31.3883C30.3882 64.708 29.5775 65.5186 29.5775 66.5189C29.5775 67.5192 30.3882 68.3297 31.3883 68.3297H34.4767C35.894 68.3297 37.1358 69.3361 37.4294 70.7227L42.8103 96.1432C43.3185 98.5444 45.1217 100.422 47.386 101.115C47.1052 101.781 46.961 102.496 46.9618 103.219C46.9618 106.214 49.3987 108.652 52.3944 108.652C55.39 108.652 57.8269 106.214 57.8269 103.219C57.8269 102.584 57.7164 101.975 57.5155 101.408H65.6233C65.4169 101.99 65.3115 102.602 65.3119 103.219C65.3119 106.214 67.7488 108.652 70.7445 108.652C73.7401 108.652 76.177 106.214 76.177 103.219C76.177 102.584 76.0665 101.975 75.8656 101.408H76.2978C77.2979 101.408 78.1086 100.598 78.1086 99.5973C78.1086 98.597 77.2979 97.7865 76.2978 97.7865H49.306C47.8887 97.7865 46.6469 96.7801 46.3533 95.3935L45.889 93.199H55.043L55.0481 93.1992L55.052 93.199H66.6384L66.6422 93.1992L66.6473 93.199H77.9543C78.3725 93.199 78.7777 93.0543 79.1013 92.7895C79.4248 92.5246 79.6468 92.156 79.7295 91.7462L81.6323 82.3149C81.6825 82.1678 81.7133 82.0148 81.7241 81.8598L83.6262 72.4303ZM54.2052 103.219C54.2052 104.218 53.393 105.03 52.3944 105.03C51.3957 105.03 50.5835 104.218 50.5835 103.219C50.5835 102.22 51.3957 101.408 52.3944 101.408C53.393 101.408 54.2052 102.22 54.2052 103.219ZM72.5553 103.219C72.5553 104.218 71.7431 105.03 70.7445 105.03C69.7458 105.03 68.9336 104.218 68.9336 103.219C68.9336 102.22 69.7458 101.408 70.7445 101.408C71.7431 101.408 72.5553 102.22 72.5553 103.219ZM78.4206 79.9193H69.8984L70.6529 73.8831H79.6385L78.4206 79.9193ZM56.6489 89.5772L55.8944 83.541H65.796L65.0414 89.5772H56.6489ZM55.4417 79.9193L54.6872 73.8831H67.0032L66.2487 79.9193H55.4417ZM51.0372 73.8831L51.7917 79.9193H43.0778L41.8001 73.8831H51.0372ZM43.8444 83.541H52.2444L52.9989 89.5772H45.1222L43.8444 83.541ZM68.6912 89.5772L69.4457 83.541H77.69L76.4721 89.5772H68.6912Z" fill="#50758D"/>
<path d="M0.0144958 47.082H24.8547C24.5409 53.2028 19.4777 58.0679 13.2797 58.0679H11.5895C8.38794 58.0679 5.49055 56.7714 3.39478 54.6732C1.42939 52.7102 0.166609 50.0446 0.0144958 47.082Z" fill="#FC4755"/>
<path d="M24.8837 47.082H48.5167C48.2028 53.2028 43.1396 58.0679 36.9416 58.0679H36.4587C33.2571 58.0679 30.3598 56.7714 28.264 54.6732C26.2986 52.7102 25.0358 50.0446 24.8837 47.082Z" fill="#FFAC5C"/>
<path d="M48.5457 47.082H71.9372C71.6234 53.2028 66.5602 58.0679 60.3622 58.0679H60.1207C53.9227 58.0679 48.8596 53.2028 48.5457 47.082Z" fill="#FC4755"/>
<path d="M71.9662 47.082H95.1163C94.9642 50.0446 93.7014 52.7102 91.736 54.6732C89.6402 56.7714 86.7428 58.0679 83.5412 58.0679C77.3432 58.0679 72.2801 53.2028 71.9662 47.082Z" fill="#FFAC5C"/>
<path d="M119.986 47.082C119.672 53.2028 114.608 58.0679 108.41 58.0679H106.72C103.519 58.0679 100.621 56.7714 98.5255 54.6732C96.5602 52.7102 95.2974 50.0446 95.1453 47.082H119.986Z" fill="#FC4755"/>
<path d="M9.65796 26.4384V14.366C9.65796 9.03211 13.9821 4.70801 19.3159 4.70801H100.684C106.018 4.70801 110.342 9.03211 110.342 14.366V26.4384H9.65796Z" fill="#50758D"/>
<path d="M24.833 19.0373C25.6447 18.0877 26.1368 16.8568 26.1368 15.5127C26.1368 12.5173 23.6999 10.0801 20.7042 10.0801C19.0151 10.0801 17.5036 10.8551 16.5064 12.0684C16.0462 12.6049 15.5862 13.1414 15.1265 13.6781C14.2846 14.6594 13.8221 15.9099 13.8229 17.2028C13.8229 20.1982 16.2599 22.6354 19.2555 22.6354C20.9449 22.6354 22.4564 21.8601 23.4536 20.6468C23.4765 20.62 24.3965 19.5473 24.833 19.0373ZM39.1388 19.0977C39.9506 18.1481 40.4427 16.9172 40.4427 15.573C40.4427 12.5776 38.0057 10.1404 35.0101 10.1404C33.3209 10.1404 31.8094 10.9155 30.8122 12.1288C30.352 12.6653 29.8921 13.2018 29.4324 13.7385C28.5904 14.7198 28.1279 15.9702 28.1288 17.2632C28.1288 20.2586 30.5657 22.6958 33.5614 22.6958C35.2508 22.6958 36.7623 21.9205 37.7594 20.7072C37.7824 20.6804 38.7023 19.6076 39.1388 19.0977ZM53.3843 19.0977C54.1961 18.1481 54.6881 16.9172 54.6881 15.573C54.6881 12.5776 52.2512 10.1404 49.2555 10.1404C47.5664 10.1404 46.0549 10.9155 45.0577 12.1288C44.5975 12.6653 44.1375 13.2018 43.6778 13.7385C42.8359 14.7198 42.3734 15.9702 42.3742 17.2632C42.3742 20.2586 44.8112 22.6958 47.8068 22.6958C49.4963 22.6958 51.0077 21.9205 52.0049 20.7072C52.0278 20.6804 52.9478 19.6076 53.3843 19.0977Z" fill="#2B597F"/>
<path d="M20.7042 20.9453C17.7086 20.9453 15.2716 18.5081 15.2716 15.5127C15.2716 12.5173 17.7086 10.0801 20.7042 10.0801C23.6999 10.0801 26.1368 12.5173 26.1368 15.5127C26.1368 18.5081 23.6999 20.9453 20.7042 20.9453Z" fill="#FD646F"/>
<path d="M35.01 21.0058C32.0144 21.0058 29.5775 18.5686 29.5775 15.5732C29.5775 12.5778 32.0144 10.1406 35.01 10.1406C38.0057 10.1406 40.4426 12.5778 40.4426 15.5732C40.4426 18.5686 38.0057 21.0058 35.01 21.0058Z" fill="#FFC682"/>
<path d="M49.2555 21.0058C46.2599 21.0058 43.8229 18.5686 43.8229 15.5732C43.8229 12.5778 46.2599 10.1406 49.2555 10.1406C52.2512 10.1406 54.6881 12.5778 54.6881 15.5732C54.6881 18.5686 52.2512 21.0058 49.2555 21.0058Z" fill="#93DDB7"/>
<path d="M103.606 19.0979C104.417 18.1483 104.909 16.9174 104.909 15.5732C104.909 12.5778 102.473 10.1406 99.4769 10.1406H67.3642C65.675 10.1406 64.1636 10.9157 63.1664 12.129C62.7062 12.6655 62.2462 13.202 61.7865 13.7387C60.9446 14.72 60.4821 15.9704 60.4829 17.2634C60.4829 20.2588 62.9199 22.696 65.9155 22.696H98.0282C99.7176 22.696 101.229 21.9207 102.226 20.7074C102.249 20.6806 103.169 19.6078 103.606 19.0979Z" fill="#2B597F"/>
<path d="M99.4768 21.0058H67.3642C64.3685 21.0058 61.9316 18.5686 61.9316 15.5732C61.9316 12.5778 64.3685 10.1406 67.3642 10.1406H99.4768C102.473 10.1406 104.909 12.5778 104.909 15.5732C104.909 18.5686 102.473 21.0058 99.4768 21.0058Z" fill="#F5F5F5"/>
<path d="M35.01 21.0058C32.0144 21.0058 29.5775 18.5686 29.5775 15.5732C29.5775 12.5778 32.0144 10.1406 35.01 10.1406C38.0057 10.1406 40.4426 12.5778 40.4426 15.5732C40.4426 18.5686 38.0057 21.0058 35.01 21.0058Z" fill="#FFC682"/>
<path d="M49.2555 21.0058C46.2599 21.0058 43.8229 18.5686 43.8229 15.5732C43.8229 12.5778 46.2599 10.1406 49.2555 10.1406C52.2512 10.1406 54.6881 12.5778 54.6881 15.5732C54.6881 18.5686 52.2512 21.0058 49.2555 21.0058Z" fill="#93DDB7"/>
</g>
<defs>
<clipPath id="clip0_433_185">
<rect width="120" height="120" fill="white"/>
</clipPath>
</defs>
</svg>
