<svg width="120" height="120" viewBox="0 0 120 120" fill="none" xmlns="http://www.w3.org/2000/svg">
<path d="M118.242 56.9062L99.2344 46.3594C98.1091 45.7969 96.8435 45.7969 95.7188 46.3594L88.125 50.6496V21.3281H31.875V50.6496L24.281 46.3594C23.1562 45.7969 21.8906 45.7969 20.7654 46.3594L1.75781 56.9062C0.702891 57.5388 0 58.7344 0 60C0 61.2656 0.702891 62.4607 1.75781 63.0938L15.2812 70.5469L51.2109 101.766H68.7891L104.719 70.5469L118.242 63.0938C119.297 62.4607 120 61.2656 120 60C120 58.7344 119.297 57.5388 118.242 56.9062ZM60 66.5391L42.2027 56.4844H77.797L60 66.5391Z" fill="url(#paint0_linear_433_143)"/>
<path d="M118.242 78L104.719 70.5469L61.7578 94.7344C61.1953 95.0154 60.5625 95.1562 60 95.1562C59.4375 95.1562 58.8047 95.0154 58.2422 94.7344L15.2812 70.5469L1.75781 78C0.702891 78.6326 0 79.8281 0 81.0938C0 82.3594 0.702891 83.5545 1.75781 84.1875L58.2422 115.828C58.8047 116.109 59.4375 116.25 60 116.25C60.5625 116.25 61.1953 116.109 61.7578 115.828L118.242 84.1875C119.297 83.5545 120 82.3594 120 81.0938C120 79.8281 119.297 78.6326 118.242 78ZM1.75781 42L58.2422 73.6406C58.8047 73.9216 59.4375 74.0625 60 74.0625C60.5625 74.0625 61.1953 73.9216 61.7578 73.6406L118.242 42C119.297 41.367 120 40.1719 120 38.9062C120 37.6406 119.297 36.4451 118.242 35.8125L61.7578 4.17188C60.633 3.60938 59.367 3.60938 58.2422 4.17188L1.75781 35.8125C0.702891 36.4451 0 37.6406 0 38.9062C0 40.1719 0.702891 41.367 1.75781 42ZM71.6018 34.3357C70.1955 32.9998 70.1955 30.7498 71.6018 29.4138C72.9377 28.0078 75.1875 28.0078 76.5234 29.4138L83.5547 36.4451C84.9609 37.781 84.9609 40.031 83.5547 41.367L76.5234 48.3982C75.2588 49.8045 72.8672 49.8049 71.6018 48.3982C70.1955 47.0623 70.1955 44.8123 71.6018 43.4763L76.1013 38.9062L71.6018 34.3357ZM54.7969 45.0938L58.3125 31.0312C58.8047 29.1326 60.7029 28.0078 62.6016 28.4995C64.5002 28.9214 65.625 30.8201 65.2031 32.7185L61.6875 46.781C61.0884 49.0777 58.4939 49.8607 57.3984 49.3123C55.5 48.8906 54.375 46.992 54.7969 45.0938ZM36.4455 36.4451L43.4768 29.4138C44.8127 28.0078 47.0625 28.0078 48.3984 29.4138C49.8047 30.7498 49.8047 32.9998 48.3984 34.3357L43.8987 38.9062L48.3982 43.4763C49.8045 44.8123 49.8045 47.0623 48.3982 48.3982C47.1335 49.8045 44.742 49.8049 43.4766 48.3982L36.4453 41.367C35.0391 40.031 35.0391 37.781 36.4455 36.4451Z" fill="url(#paint1_linear_433_143)"/>
<defs>
<linearGradient id="paint0_linear_433_143" x1="60" y1="101.766" x2="60" y2="21.3281" gradientUnits="userSpaceOnUse">
<stop stop-color="#ADDCFF"/>
<stop offset="0.503" stop-color="#EAF6FF"/>
<stop offset="1" stop-color="#EAF6FF"/>
</linearGradient>
<linearGradient id="paint1_linear_433_143" x1="60" y1="116.25" x2="60" y2="3.75" gradientUnits="userSpaceOnUse">
<stop stop-color="#5558FF"/>
<stop offset="1" stop-color="#00C0FF"/>
</linearGradient>
</defs>
</svg>
