<svg width="120" height="120" viewBox="0 0 120 120" fill="none" xmlns="http://www.w3.org/2000/svg">
<path d="M39.825 102.5C42.5269 97.9346 43.3047 92.4832 41.9872 87.3447C40.6698 82.2062 37.3651 77.8015 32.8 75.0996C28.235 72.3977 22.7836 71.6199 17.6451 72.9374C12.5066 74.2548 8.10192 77.5596 5.40002 82.1246L42.5 17.9746C40.8126 21.0543 39.9658 24.5241 40.0448 28.0349C40.1237 31.5458 41.1258 34.9739 42.95 37.9746C42.675 37.9746 43.4 38.6746 60.075 67.6746L39.825 102.5Z" fill="#FFCC66"/>
<path d="M117.5 92.4998C117.5 112.95 90.325 120 80.175 102.5C41.7 35.8248 42.675 37.8498 42.875 37.8498C41.3722 35.5701 40.3521 33.007 39.8775 30.3181C39.4029 27.6293 39.4839 24.8717 40.1155 22.2154C40.7471 19.5591 41.9159 17.0602 43.5499 14.8727C45.184 12.6852 47.2486 10.8555 49.6166 9.49624C51.9846 8.13698 54.6059 7.27699 57.3189 6.96924C60.0319 6.6615 62.7791 6.91252 65.3914 7.70684C68.0037 8.50117 70.4257 9.82197 72.5082 11.5879C74.5907 13.3538 76.2895 15.5274 77.5 17.9748C117.5 87.1998 117.5 84.9998 117.5 92.4998Z" fill="#6FABE6"/>
<path d="M117.5 92.4995C117.508 94.918 117.067 97.3169 116.2 99.5745C114.003 101.641 111.366 103.184 108.488 104.087C105.61 104.99 102.565 105.231 99.581 104.791C96.5968 104.351 93.7508 103.242 91.2561 101.546C88.7613 99.8503 86.6824 97.6123 85.175 94.9995C46.7 28.3245 47.675 30.3495 47.875 30.3495C46.2976 27.7449 45.3358 24.8145 45.0628 21.7818C44.7899 18.749 45.213 15.6939 46.3 12.8495C48.5355 10.7722 51.2168 9.23397 54.1385 8.35265C57.0602 7.47134 60.1448 7.27032 63.1561 7.76497C66.1675 8.25963 69.0257 9.43684 71.512 11.2065C73.9982 12.9761 76.0465 15.2912 77.5 17.9745C117.5 87.1995 117.5 84.9995 117.5 92.4995Z" fill="#82BCF4"/>
<path d="M57.125 62.4996C52.8419 69.9353 46.4166 75.9071 38.6878 79.6355C30.959 83.3639 22.2857 84.6757 13.8 83.3996L5.40002 82.1246L42.5 17.9746C40.8126 21.0543 39.9658 24.5241 40.0448 28.0349C40.1237 31.5458 41.1258 34.9739 42.95 37.9746C42.625 37.8496 42.725 37.6496 57.125 62.4996Z" fill="#FFDE76"/>
<path d="M42.5 92.5C42.4875 96.0085 41.5658 99.4538 39.825 102.5C29.625 120.175 2.5 112.9 2.5 92.5C2.5 87.1957 4.60714 82.1086 8.35786 78.3579C12.1086 74.6071 17.1957 72.5 22.5 72.5C27.8043 72.5 32.8914 74.6071 36.6421 78.3579C40.3929 82.1086 42.5 87.1957 42.5 92.5Z" fill="#9DCC6B"/>
<path d="M40 102.5C22.275 112.5 2.5 92.4997 12.625 75.1247C30 64.9997 50 84.9997 40 102.5Z" fill="#B5E08C"/>
</svg>
